/* XPM */
static const char *__[] = {
/* columns rows colors chars-per-pixel */
"32 32 138 2 ",
"   c #11100F",
".  c #151311",
"X  c #181514",
"o  c #221E1C",
"O  c #23201E",
"+  c #1F1F20",
"@  c #232326",
"#  c #292726",
"$  c #2D2826",
"%  c #312E2C",
"&  c #35302D",
"*  c #363433",
"=  c #3A3532",
"-  c #3D3835",
";  c #393939",
":  c #443D3A",
">  c #45403E",
",  c #48413D",
"<  c #3E3F42",
"1  c #383D50",
"2  c #454444",
"3  c #4C4440",
"4  c #4D4845",
"5  c #4B4A4A",
"6  c #504743",
"7  c #524945",
"8  c #564E4A",
"9  c #56504C",
"0  c #5A514C",
"q  c #414456",
"w  c #4B4C54",
"e  c #4D4E5D",
"r  c #4E505F",
"t  c #535252",
"y  c #5A5451",
"u  c #5F5B5A",
"i  c #635E5B",
"p  c #63605D",
"a  c #6C615B",
"s  c #70655F",
"d  c #5E5E69",
"f  c #646262",
"g  c #6A6664",
"h  c #6C6867",
"j  c #65656C",
"k  c #6F6C6C",
"l  c #716660",
"z  c #746A63",
"x  c #786D66",
"c  c #736F6D",
"v  c #7A6F69",
"b  c #7E726B",
"n  c #757271",
"m  c #797472",
"M  c #7D7977",
"N  c #7C7978",
"B  c #81756E",
"V  c #837771",
"C  c #857972",
"Z  c #887C76",
"A  c #827D7A",
"S  c #8A7F79",
"D  c #8C817B",
"F  c #8B8583",
"G  c #8E8884",
"H  c #958C86",
"J  c #998E89",
"K  c #9D918C",
"L  c #9E9692",
"P  c #A2958E",
"I  c #A39791",
"U  c #A49994",
"Y  c #AA9D95",
"T  c #A29E9D",
"R  c #AC9F98",
"E  c #ADA19B",
"W  c #B2A39C",
"Q  c #A3A3A3",
"!  c #A8A5A4",
"~  c #AAAAAA",
"^  c #B2A6A1",
"/  c #B4A9A2",
"(  c #B9ACA5",
")  c #BAAFA9",
"_  c #BDB2AC",
"`  c #B3B3B3",
"'  c #BBBABA",
"]  c #C5B5AD",
"[  c #C2B7B0",
"{  c #C6BBB4",
"}  c #C9BDB6",
"|  c #CABFB8",
" . c #D0BFB6",
".. c #CFC2BB",
"X. c #D1C0B7",
"o. c #D2C1B9",
"O. c #D2C1B8",
"+. c #D2C2B9",
"@. c #D3C2B9",
"#. c #D1C3BB",
"$. c #D0C0B8",
"%. c #D0C3BC",
"&. c #D1C3BC",
"*. c #D1C4BC",
"=. c #D0C4BD",
"-. c #D3C4BC",
";. c #D2C5BE",
":. c #D3C6BE",
">. c #D4C4BC",
",. c #D2C1B8",
"<. c #C1C1C1",
"1. c #C2C2C2",
"2. c #C3C3C3",
"3. c #C4C4C4",
"4. c #C7C7C7",
"5. c gray80",
"6. c #D3C8C1",
"7. c #D6C8C0",
"8. c #D7C9C1",
"9. c #D5C9C2",
"0. c #D7CAC3",
"q. c #D8CAC2",
"w. c #D9CAC2",
"e. c #D9CAC3",
"r. c #D9CBC3",
"t. c #DACBC3",
"y. c #D8CCC5",
"u. c #DACFC8",
"i. c #DCD2CB",
"p. c #DED3CB",
"a. c #DFD4CD",
"s. c #E0D4CD",
"d. c #E0D5CE",
"f. c #E1D5CE",
"g. c #E1D5CF",
"h. c #E1D6CE",
"j. c #E1D6CF",
"k. c #E2D6CF",
/* pixels */
"1 1 1 r j f t 5 i n n n n n n n n n n n n n n f 5 t f j e 1 1 1 ",
"1 1 d ..h.F 5 5 } a.a.a.a.a.a.h.a.h.h.a.h.a.a...5 5 A h...d 1 1 ",
"1 d { q.h.k ; c h.h.h.h.p.[ 6.| } 7.[ p.h.h.h.h.M ; f h.7.{ d 1 ",
"d { o.7.h.T G { h.h.h.h.y.8 / i i / 8 u.h.h.h.h.| H L a.7.o.{ d ",
"[ | | -.q.q.q.q.q.q.q.q.>.: R 4 4 E : >.q.q.q.q.q.q.7.q.>.| | [ ",
"} } } ..W W o.o.o.o.o.o.{ x W C V W x } X.o.o.o.o.} P ] ..} } } ",
"} } } -.X.P E o.o.o.o.o.o.] } { { } ] X.o.o.o.o. .P W o...} } } ",
"} } } -.o.o.P E o.o.o.o.o.o.o.o.o.o.o.o.o.o.o. .P W o.o...} } } ",
"} } } %.o.o.o.W  .o.o.o.o.o.o.o.o.o.o.o.o.o.o.{ / o.o.o.%.} } } ",
"} } } %.o.o.o.o.o.{ ] ] { ] ] ] ] ] ] ] ] ] { o.o.o.o.o.-.} } } ",
"} } } ..o.o.o.o.W C x z a s z z z s l a z x B ( o.o.o.o...} } } ",
"} } } ..o.o.o.{ C a = &   X $ = = X o . = - a B { o.o.o...} } } ",
"} } } ..o.o.o.] b : 3 8 % = 4 y 0 = , * y 3 , b [ o.o.o...} } } ",
"} } | ..o.o.o.] B 8 N ~ ' ' ' ' ' ' ' ' ~ N 8 b ] o.o.o...} } } ",
"} | / ( D o.o.] B 8 E Q <.~ ~ ~ ~ ~ ~ ' ! T 8 b ] o. .Z ( ( } } ",
"_ _ ( ) R ] ] ( b 7 Q 5.<.` ` ` ` ` ` <.5.! 0 B ( ] ] R _ ( _ _ ",
"| } ] [ R o.o.] b 8 Q 5.4.' ' ' ' ' ' 4.5.Q 8 b ] o.X.R [ ] | } ",
"} } ( _ H o.o.] b 8 Q T 4.' ` ' ' ` ' <.Q E 8 b ] o.X.H _ ( | } ",
"} } } ..o.o.o.] b 7 k ~ ' ' ` ' ` ` ` ` ~ h 8 b ] o.o.o...} } { ",
"} } } %.o.o.o.] b 8 : : + # - , : # % @ , : 8 b ] X.o.o...} } } ",
"} } } ..o.o.o.{ V z 6 , X o - 3 3 O % o 3 7 z C { o.o.o...} } } ",
"} } } ..o.o.o.o.] Z b b v v b b b v v v b b C ] o.o.o.o...} } } ",
"} } } ..o.o.o.X.o.o.X. .| ..o.o.} o.| X.o.o.o.o.o.o.o.o...} } } ",
"} } } %.o.o.} W o.o.o.X.o.o.o.o.o.o.X.o.X.o.o.{ W o.o.o...} } } ",
"} } | ..o.} K ( o.o.o.o.o.o.o.o.o.o.o.o.o.o.o.o.Y R X.o...} } } ",
"} } | ..} K / o.o.o.o.o.o.o. .} X. .$.o.o.o.o.o.o.Y R o.%.} } } ",
"} | } ..W ( o.o.X.o.o.X.} b ^ D S W b } o.o.o.o.o.o.U ] ..} } } ",
"^ ( ( ] } } } } { } } } ] : P 3 3 I : [ } } } } } } } } ] ( ( ^ ",
"e J P R / M g K / / / / ^ 7 J 8 8 J 7 ^ / / / / L g m / R P J e ",
"1 e J R / f ; p / / / / ^ K R U I E K ^ / / / / g ; u / R J e 1 ",
"1 1 e U / m 5 2 K ^ ^ / / / / ^ / / / / ^ ^ ^ U 2 5 c ^ L e 1 1 ",
"1 1 1 q w 5 2 2 2 5 5 5 5 5 5 5 5 5 5 5 5 5 5 2 < 2 4 w q 1 1 1 "
};
