/* XPM */
static const char *C_[] = {
/* columns rows colors chars-per-pixel */
"32 32 88 1 ",
"  c #243A1E",
". c #21232D",
"X c #252D2E",
"o c #233421",
"O c #273926",
"+ c #26312C",
"@ c #242632",
"# c #262834",
"$ c #282A37",
"% c #272A38",
"& c #2A2C3A",
"* c #2D303F",
"= c #294E16",
"- c #25401C",
"; c #2A5315",
": c #2D5815",
"> c #2C5319",
", c #2E5918",
"< c #315E18",
"1 c #35641B",
"2 c #37681D",
"3 c #38691D",
"4 c #284121",
"5 c #2C4D21",
"6 c #2D5021",
"7 c #2F4431",
"8 c #314635",
"9 c #334936",
"0 c #33453A",
"q c #35493C",
"w c #3B6D21",
"e c #3E7023",
"r c #5C710E",
"t c #767F0C",
"y c #417326",
"u c #44752A",
"i c #48772E",
"p c #47782D",
"a c #48792F",
"s c #4C7C33",
"d c #507F33",
"f c #2E3040",
"g c #323546",
"h c #333748",
"j c #363A4C",
"k c #383C4F",
"l c #383D51",
"z c #3B4055",
"x c #78810C",
"c c #69861E",
"v c #6E891F",
"b c #6F8A1F",
"n c #768C1B",
"m c #748B1C",
"M c #788D1B",
"N c #788E1C",
"B c #508037",
"V c #518038",
"C c #688620",
"Z c #85880A",
"A c #92900A",
"S c #9E9608",
"D c #ACA50F",
"F c #B0A007",
"G c #B3A106",
"H c #BFA906",
"J c #B2A309",
"K c #AFA710",
"L c #B2A811",
"P c #BBAE16",
"I c #CCB004",
"U c #CDB004",
"Y c #C2B10D",
"T c #C5B20D",
"R c #C7B20C",
"E c #C8B411",
"W c #E1BD03",
"Q c #E4BD02",
"! c #E3BF05",
"~ c #E4BF05",
"^ c #ECC404",
"/ c #F2C602",
"( c #F2C603",
") c #F4C601",
"_ c #F8C901",
"` c #F9CA01",
"' c #FCCB00",
"] c #FECC00",
/* pixels */
"llll>>>>>>>>>>>>>>>>:>;;;>;0llll",
"llll;wuVVVVpVpyueyueyye23318llll",
"llll;3ussssusuyeyeyyyyw22119zlll",
"lkll5;3ussssipywyeeeew111<;0llll",
"ljhll>wuVVVsssyyyuyyyy332<8kkjkl",
"lj$hl>wpVVVsssyyuyyyyy332<8lgflk",
"lj.$g>wuVVVsssyyuyyyyy333<qg@%zl",
"lj.@%>wpVVVsssyyyyyyyy333<7#.&zj",
"lj@.X=3pVVVsssyyuyyyyy333< .#*zl",
"lj.#O:wysssupuwweeeeew1111;##*zl",
"lj@.O<esVVVsssyyyyyyyyw323;##*zl",
"lj@#O:wuspsupuwewewwyw1111;##*zl",
"kj.#+;wpsVVsssyKveyyyy332<-##*zl",
"kj@.#=wuVVVsssD'~vyyyy333<o##*zl",
"lj.##=3pVVVssPHIF!Cyyy333<o##fzl",
"kj...=wpVVVsLQxZrJ/cye233<o..&zl",
"lj...=wuVVVdT)ItS_/myy333<o..&zl",
"kj.##=wuVVVssEWAF^Nyyy333< ##*zl",
"lj.##=wuVVVssdR]_nyyyy323< ##&zl",
"kj.@X=wuVVVsssyYMuyyyy323<-##*zl",
"lj@.O:wusssuuuweewewww3111;##*zl",
"kj@#O<esVVViBiyyeuyyyuw222;##fzl",
"kk@@O:wussspiyeeeeweee3111;##*zl",
"lj@#X=3pVVVsssyyuyyyyy223<4.#*zl",
"kj..*>wuVVVsssuyyyyyyy333<q$.*zl",
"lj.&z>wpVVVsssuyyyyyyy333<0z%%zl",
"kj&zl>wuVVVsssyuyyyyyy333<8lzhzl",
"llzll>wpVVVsssyyyyyyyy333<8llzll",
"jlll5;3usssssieeyeyeee221<>0llll",
"llkl;3esssspsueyyyyeyew11117llll",
"lllk>wpVVVVuViyyyyyyyyw23318klll",
"jlll>;:<,,<:,:,;:;::;::;;;;8lkll"
};
