/* XPM */
static const char *E_[] = {
/* columns rows colors chars-per-pixel */
"32 32 156 2 ",
"   c #1B1B1B",
".  c #332714",
"X  c #3A2B12",
"o  c #1B1D26",
"O  c #1D1F29",
"+  c #1F2022",
"@  c #1E202A",
"#  c #292826",
"$  c #21232E",
"%  c #2A2A2A",
"&  c #252423",
"*  c #242632",
"=  c #262834",
"-  c #282A37",
";  c #2A2D3B",
":  c #2D303F",
">  c #313131",
",  c #412902",
"<  c #482E02",
"1  c #513301",
"2  c #412F10",
"3  c #443111",
"4  c #4A3510",
"5  c #543B11",
"6  c #623E02",
"7  c #704701",
"8  c #7C4E01",
"9  c #694911",
"0  c #755011",
"q  c #7A5210",
"w  c #5D4B32",
"e  c #795F39",
"r  c #2E3040",
"t  c #323546",
"y  c #333748",
"u  c #363A4C",
"i  c #383C4F",
"p  c #383D50",
"a  c #3C404E",
"s  c #3B4054",
"d  c #4C4E5C",
"f  c #555053",
"g  c #5F5A5C",
"h  c #685941",
"j  c #62574D",
"k  c #6B5D4A",
"l  c #726047",
"z  c #736348",
"x  c #7F6B49",
"c  c #5D5B63",
"v  c #6E6563",
"b  c #6B6B6C",
"n  c #706764",
"m  c #726965",
"M  c #746C6D",
"N  c #796D64",
"B  c #7B7169",
"V  c #767676",
"C  c #7B7374",
"Z  c #7E7874",
"A  c #7A7579",
"S  c #A43C2E",
"D  c #835302",
"F  c #8F5A01",
"G  c #935C01",
"H  c #8D5F12",
"J  c #936211",
"K  c #9F6B11",
"L  c #A86A01",
"P  c #B97501",
"I  c #A24436",
"U  c #8E7448",
"Y  c #9C7D49",
"T  c #BB634B",
"R  c #A07F49",
"E  c #A46C5D",
"W  c #84766C",
"Q  c #85786D",
"!  c #847A73",
"~  c #8D7F73",
"^  c #827979",
"/  c #8A7E78",
"(  c #B57D6B",
")  c #C75E40",
"_  c #A08048",
"`  c #AE884A",
"'  c #BD9148",
"]  c #8C8077",
"[  c #87817B",
"{  c #8B847E",
"}  c #938477",
"|  c #938578",
" . c #97887D",
".. c #9D8C7E",
"X. c #A08F7D",
"o. c #C19449",
"O. c #8C8782",
"+. c #928580",
"@. c #9E8D80",
"#. c #918F8D",
"$. c #938984",
"%. c #969493",
"&. c #999693",
"*. c #9B9895",
"=. c #9A9A99",
"-. c #A08E80",
";. c #A49385",
":. c #A99789",
">. c #A6988D",
",. c #AB9A8C",
"<. c #B19D8F",
"1. c #AD9D90",
"2. c #A29E9B",
"3. c #B09F91",
"4. c #AEA49D",
"5. c #B4A193",
"6. c #B9A696",
"7. c #B7A699",
"8. c #BAA798",
"9. c #BCA899",
"0. c #A5A5A4",
"q. c #ACACAB",
"w. c #B5ABA3",
"e. c #BEAFA5",
"r. c #B0AFAF",
"t. c #B1B0AF",
"y. c #B2B2B2",
"u. c #B8B7B7",
"i. c #BEB9B5",
"p. c #BBBBBB",
"a. c #C0AB9B",
"s. c #C6B7AC",
"d. c #CBB9AE",
"f. c #C2BEBB",
"g. c #C2C0BE",
"h. c #C4C1BE",
"j. c #CFC2B9",
"k. c #C1C1C0",
"l. c #C5C5C5",
"z. c #C5C6C7",
"x. c #C6C6C6",
"c. c #C7C7C7",
"v. c #C5C5C6",
"b. c #C4C3C2",
"n. c #C9C7C6",
"m. c #C6C7C8",
"M. c #C8C8C8",
"N. c #C9C9C9",
"B. c #CACACA",
"V. c #CCCCCC",
"C. c #CDCDCD",
"Z. c #CECECE",
"A. c #CDCDCE",
"S. c #CDCDCD",
"D. c #D9CDC6",
"F. c #DFD3CB",
/* pixels */
"p p p p p i s ^ +.Z / $.D.d.T ) ) ( F.e.+.C {  .c p p p p p p p ",
"p p p p i u $.9.5. .;.,.5.,.I S S E 5.<.,.| ,.9.7.c u p p p p p ",
"p p p p s ; 6.5.B O.&.*.*.*.*.*.*.*.*.*.*.#.Z  .9.v ; p p p p i ",
"p i p p p s 6.-.&.x.V.V.V.V.V.V.V.V.V.V.V.B.p.! 8.M s i p p i p ",
"p u y p p p 6.@.q.B.V.V.B.B.B.B.B.B.B.V.V.V.B.{ 6.A p p p u u p ",
"p u - y p p 6.@.r.B.B.x.u.=.=.%.=.=.=.k.B.B.V.{ 6.C p p y r s p ",
"p u $ - y p 6.@.q.x.x.B.b % &   # % # 0.x.x.x.{ 8.C p y = ; s p ",
"p u $ * - y 6...q.x.x.B.b # +   > # # =.x.m.B.{ 8.C y = $ : s p ",
"p u $ = = - 6...2.i.i.f.0.b b b V b V p.f.i.i.! 6.M = $ = : s p ",
"p u $ = = = 6...] >.>.>.i.g.B.B.B.B.f.w.>.>.>.N 6.v $ = = : s p ",
"p u $ = = = 6...t.V.V.n.,.>.B.V.V.b.;.w.V.V.V.{ 6.n = = = r s p ",
"p u $ = = $ 6.@.y.V.V.V.V.V.V.V.V.V.V.V.V.V.V.{ 6.v $ = = : s p ",
"p u $ * = O 6.@.y.V.V.V.V.V.V.V.V.V.V.V.V.V.V.{ 6.v O = = r s p ",
"p u * = = @ 6.@.y.V.V.V.V.V.V.V.V.V.V.V.V.V.V.{ 8.m O = = : s p ",
"p u $ * = O 6...t.V.V.V.V.V.V.V.V.V.V.V.V.V.V.{ 9.m O - = : s p ",
"p u $ $ $ o 6.X.t.V.V.V.V.V.V.V.V.V.V.V.V.V.V.{ 6.m o $ $ ; p p ",
"p u $ $ $ o ! } r.V.V.V.V.V.V.V.V.V.V.V.V.V.V.{ ~ g o $ $ ; s p ",
"p u $ = = O m W r.V.V.V.V.V.V.V.V.V.V.V.V.V.V.[ B f @ = = : s p ",
"p u $ * = O ,...t.V.V.V.V.V.V.V.V.V.V.V.V.V.V.{ <.v O = = r s p ",
"p u $ * - O 6...r.V.V.V.V.V.V.V.V.V.V.V.V.V.V.{ 6.v O = = : s p ",
"p u $ = = * 6.X.q.p.B.V.V.V.V.V.V.V.V.V.V.k.k.{ 6.v * = = r p p ",
"i u $ = = = 6...q.y.M.V.V.V.V.V.V.V.V.V.V.p.u.{ 8.n = = = : s p ",
"i u $ * = = 6...0.u.b.x.x.x.x.x.x.x.x.x.x.p.p.{ 9.v $ = = r p p ",
"i i $ = = : 6.@.q.x.x.B.x.n.m.n.B.x.B.x.B.x.x.{ 6.Z - $ = ; s p ",
"p u $ = : s 4.-.2.g.k.b.g.k.k.k.h.g.g.p.h.g.u.] 9.C s - $ : s p ",
"p u $ ; s p 6.... H 5 9 q 3 J 2 K 4 0 q 5 J X e 6.C p s - ; s p ",
"p u ; s p p 6...D , L 1 8 D 1 P , L < G 7 6 F w 9.C p p s y s p ",
"p p s p p p 6.X.h ` l ' l ` U R R z o.k ' x Y j 8.C p p p s p p ",
"p p p p p y 8.@.0.B.V.V.V.V.V.V.V.V.V.V.V.V.k.{ 6.M y p p p p p ",
"p p p p u ; 6.,.B 0.u.u.u.u.u.u.u.u.u.u.u.q.%.Q 9.M r u p p p p ",
"p p p i u s 1.9.:.W ~ | } } | } } } | } | W | 6.a.b p u p p p p ",
"p p p p p p d >.6.@.,.6.6.6.s.j.j.9.8.6.8. .3.8.^ i p p p p p p "
};
