/* XPM */
static const char *EO_[] = {
/* columns rows colors chars-per-pixel */
"32 32 192 2 ",
"   c black",
".  c #020202",
"X  c #050404",
"o  c #0E0C0B",
"O  c #181513",
"+  c #191614",
"@  c #1A1714",
"#  c #1B1815",
"$  c #1A1C24",
"%  c #1B1D26",
"&  c #1C1E27",
"*  c #1D1F29",
"=  c #1E202A",
"-  c #1F212B",
";  c #20222C",
":  c #20222D",
">  c #21232D",
",  c #21232E",
"<  c #22242E",
"1  c #22242F",
"2  c #312B26",
"3  c #3C342E",
"4  c #222430",
"5  c #232530",
"6  c #232531",
"7  c #242631",
"8  c #242632",
"9  c #252733",
"0  c #252734",
"q  c #262834",
"w  c #272A36",
"e  c #272A37",
"r  c #282A37",
"t  c #282A38",
"y  c #282B38",
"u  c #292C3A",
"i  c #2B2D3B",
"p  c #2B2E3C",
"a  c #2C2F3E",
"s  c #2D303F",
"d  c #403932",
"f  c #443C35",
"g  c #443C36",
"h  c #453D36",
"j  c #4B423B",
"k  c #2D3140",
"l  c #2E3040",
"z  c #2E3140",
"x  c #303343",
"c  c #323646",
"v  c #323647",
"b  c #333748",
"n  c #343748",
"m  c #343849",
"M  c #34384A",
"N  c #35394A",
"B  c #363A4B",
"V  c #353A4C",
"C  c #363A4C",
"Z  c #373A4C",
"A  c #363B4C",
"S  c #373B4D",
"D  c #373B4E",
"F  c #373C4E",
"G  c #383B4E",
"H  c #383C4E",
"J  c #383C4F",
"K  c #383D4F",
"L  c #383D50",
"P  c #393D50",
"I  c #393D51",
"U  c #3A3D51",
"Y  c #3A3F52",
"T  c #3B3F52",
"R  c #3A3F53",
"E  c #3B4053",
"W  c #3B4054",
"Q  c #3C4155",
"!  c #3D4155",
"~  c #3E4254",
"^  c #3D4256",
"/  c #545052",
"(  c #51515E",
")  c #57565F",
"_  c #5D5859",
"`  c #63584E",
"'  c #5B5962",
"]  c #6A6261",
"[  c #6B6361",
"{  c #696162",
"}  c #6B6362",
"|  c #6D6564",
" . c #6E6767",
".. c #6C686F",
"X. c #756A62",
"o. c #70696A",
"O. c #726B6C",
"+. c #736B6C",
"@. c #796E68",
"#. c #7C7066",
"$. c #7F7267",
"%. c #7B726F",
"&. c #756E71",
"*. c #767073",
"=. c #777073",
"-. c #777173",
";. c #7D7472",
":. c #787276",
">. c #797276",
",. c #7C7576",
"<. c #817266",
"1. c #807268",
"2. c #8A7C6F",
"3. c #8B7C70",
"4. c #897C72",
"5. c #8E7F71",
"6. c #8E7F72",
"7. c #8F7F72",
"8. c #8F7F73",
"9. c #8C7F74",
"0. c #857C7A",
"q. c #897E7B",
"w. c #D0A82F",
"e. c #CAA436",
"r. c #D2C33C",
"t. c #8D827F",
"y. c #938376",
"u. c #938478",
"i. c #958578",
"p. c #958679",
"a. c #968678",
"s. c #95867A",
"d. c #96877B",
"f. c #98887B",
"g. c #98887C",
"h. c #9B8A7C",
"j. c #B79C60",
"k. c #CDBA44",
"l. c #C0AA70",
"z. c #918581",
"x. c #9C8D81",
"c. c #9A8C85",
"v. c #9B8E86",
"b. c #A69587",
"n. c #A79687",
"m. c #A8978A",
"M. c #AA998A",
"N. c #AD9B8D",
"B. c #B09D88",
"V. c #B09D8D",
"C. c #B19E8E",
"Z. c #AF9F93",
"A. c #B19E90",
"S. c #B19F90",
"D. c #B19F91",
"F. c #B3A092",
"G. c #B2A093",
"H. c #B5A293",
"J. c #B2A194",
"K. c #B5A395",
"L. c #B5A496",
"P. c #B6A597",
"I. c #B8A595",
"U. c #B9A697",
"Y. c #BAA697",
"T. c #BBA897",
"R. c #BCA897",
"E. c #B8A698",
"W. c #B9A798",
"Q. c #B9A799",
"!. c #B8A79B",
"~. c #BBA898",
"^. c #BAA99B",
"/. c #BBA99B",
"(. c #BCA898",
"). c #BDA898",
"_. c #BDA998",
"`. c #BDA999",
"'. c #BEA998",
"]. c #BEA999",
"[. c #BEAA99",
"{. c #BDAA9A",
"}. c #BEAA9A",
"|. c #BFAB9A",
" X c #BEAA9B",
".X c #BDAB9C",
"XX c #BAABA2",
"oX c #C9B9A8",
"OX c #C8B8AD",
"+X c #CFC2B9",
"@X c #DDD1C9",
"#X c #E0D6CF",
/* pixels */
"L L L L L J ~ 0.z.;.q.v.@XoXk.r.r.l.#XXXz.%.t.z.' L L L L L L L ",
"L L L L F C v.}.H.g.b.C.K.B.e.w.w.j.L.D.C.u.M.}.L.) C L L L L L ",
"L L L L L s }.F.` + + + + + # # # # # # + O 2 f.}.[ a L L L L L ",
"L J L L L W }.f.X                             j }.+.Q L L L J L ",
"L V b L L L }.a.                              f }.>.L L L V C L ",
"L C w b L L }.a.                              f ^.*.L J c s W L ",
"L C 1 w b L }.a.                              f U.*.L b 8 y W L ",
"L C , 8 r b }.a.                              f }.&.c 8 = l W L ",
"L C 1 8 8 r }.a.X                             f }.+.6 , 8 l W L ",
"L C 1 8 8 8 }.a.                              f T.[ , 8 8 l W L ",
"L C 6 6 8 0 }.a.                              f }.[ 8 8 8 l W L ",
"L C 1 6 8 , }.a.                              f R.[ 6 8 8 l W L ",
"L V 1 8 8 * }.a.                              f }.[ & 8 8 l L L ",
"L C 1 6 w = }.a.                              f ^. .= 8 8 s Q L ",
"L C , 8 8 = ^.a.                              f T. .* 0 8 s W J ",
"J V , , 1 % .Xa.                              f }. .% , 1 p W L ",
"L C , , , $ 4.2.                              f 9._ % , , p W L ",
"L C 1 8 8 = X.1.                              d @./ = 8 8 l W L ",
"L C 1 8 8 * D.y.                              f D.[ * 8 8 l W L ",
"L C 1 8 8 * }.a.                              f R.[ & 8 8 s W L ",
"L C 1 1 8 6 }.a.                              f }.[ 6 8 8 s W L ",
"L V 1 6 8 8 }.a.                              f R.[ 8 8 8 l W L ",
"L C 1 6 8 8 }.a.                              f R.[ , 8 8 l W L ",
"L C 1 8 8 s }.a.                              f }.>.y , 8 l W L ",
"L C 1 8 s Q !.a.                              f }.*.Q r , l W L ",
"L C 1 i Q L }.a.                              f }.*.L W y i W L ",
"L C a Q L G }.a.                              f }.*.L L Q c W L ",
"L J Q L L L }.a.                              f R.&.L L L Q L L ",
"L L L J L V ^.a.                              f ^. .b L L L L L ",
"L J J L n a }.m.3                           o <.}.o.x V L L L L ",
"L F J J C Q J.}.b.$.4.6.6.6.6.6.6.6.6.6.6.$.a.U.}...W C J L L L ",
"L L J L L J ( D.!.x.N.U.!.U.OX+X+X^.U.U.!.a.F.!.,.L L L L J L L "
};
