/* XPM */
static const char *P_[] = {
/* columns rows colors chars-per-pixel */
"32 32 148 2 ",
"   c #000000",
".  c #0C040D",
"X  c #0F0511",
"o  c #0D0D12",
"O  c #140616",
"+  c #130C16",
"@  c #1B051D",
"#  c #170A1A",
"$  c #190B1D",
"%  c #15151C",
"&  c #19141D",
"*  c #17181F",
"=  c #1F0521",
"-  c #1D0B20",
";  c #1D1323",
":  c #171920",
">  c #1B1B24",
",  c #1D1F28",
"<  c #220525",
"1  c #210925",
"2  c #260529",
"3  c #2A052E",
"4  c #270E2A",
"5  c #2A092D",
"6  c #201123",
"7  c #241D26",
"8  c #27142D",
"9  c #29142D",
"0  c #251E2C",
"q  c #2F0632",
"w  c #2D0A31",
"e  c #320636",
"r  c #310934",
"t  c #350A38",
"y  c #3B0F3F",
"u  c #2C1331",
"i  c #2C1B34",
"p  c #351133",
"a  c #37103A",
"s  c #39143D",
"d  c #351838",
"f  c #3A183E",
"g  c #1E202A",
"h  c #232226",
"j  c #21232E",
"k  c #2A252D",
"l  c #262A2B",
"z  c #2A2C2C",
"x  c #2B312F",
"c  c #242632",
"v  c #2A2234",
"b  c #262835",
"n  c #2B2D34",
"m  c #2B2639",
"M  c #2A2C3A",
"N  c #312734",
"B  c #3E2733",
"V  c #332B36",
"C  c #392E32",
"Z  c #34203B",
"A  c #2D3332",
"S  c #2D303F",
"D  c #303634",
"F  c #323836",
"G  c #31363C",
"H  c #353C3A",
"J  c #383F3C",
"K  c #412B38",
"L  c #48303C",
"P  c #39413E",
"I  c #50493D",
"U  c #3E1741",
"Y  c #3F1844",
"T  c #2E3140",
"R  c #323546",
"E  c #363B47",
"W  c #333748",
"Q  c #363A4C",
"!  c #383C4E",
"~  c #383D50",
"^  c #401F43",
"/  c #422245",
"(  c #4B224F",
")  c #413C43",
"_  c #4D354F",
"`  c #4D394F",
"'  c #543C42",
"]  c #4E2052",
"[  c #4E3350",
"{  c #3D4543",
"}  c #3B4055",
"|  c #4C4743",
" . c #414946",
".. c #4F4E41",
"X. c #4D424F",
"o. c #444D4A",
"O. c #514744",
"+. c #48524E",
"@. c #525246",
"#. c #4C5652",
"$. c #515B57",
"%. c #535D59",
"&. c #645B4B",
"*. c #694D51",
"=. c #645D52",
"-. c #725E5A",
";. c #5F605E",
":. c #7E6D5D",
">. c #7A715A",
",. c #5E6060",
"<. c #6A6B6A",
"1. c #776579",
"2. c #7D727E",
"3. c #7D7D7E",
"4. c #8B7D65",
"5. c #908467",
"6. c #92856A",
"7. c #978869",
"8. c #958674",
"9. c #AD9C6E",
"0. c #A79276",
"q. c #B3A17C",
"w. c #857687",
"e. c #858086",
"r. c #8C8C8C",
"t. c #988F84",
"y. c #938A89",
"u. c #929092",
"i. c #AFA5A7",
"p. c #A9A9A9",
"a. c #B0ADB0",
"s. c #B6B5B4",
"d. c #BBBABB",
"f. c #C5B594",
"g. c #C4BEB1",
"h. c #C7C0B2",
"j. c #FEE9AE",
"k. c #C3C2C3",
"l. c #D4D4D4",
"z. c #DBDAD9",
"x. c #E0E0E0",
"c. c #EBEBEB",
"v. c #E8E9E8",
"b. c #EEEEEE",
"n. c #F1F1F1",
"m. c #F6F6F6",
"M. c #F9F9F9",
"N. c #FDFDFD",
/* pixels */
"~ ~ ~ ~ ~ ~ ~ ~ ~ R 0 ; $ # @ = 4 u i v W ! ~ ~ ~ ~ ~ ~ ~ ~ ~ ~ ",
"~ ~ ~ ~ ! Q Q Q Q 1 e e e e e e r 5 w y f m Q Q Q Q Q Q ~ ~ ~ ~ ",
"~ ~ ~ ~ ~ M g j j $ 3 3 e e e e e e t 3 t Y , j j j M } ~ ~ ~ ~ ",
"~ ! ~ ~ ~ } b , c > < 2 3 e e e e e t w e y u c c M } ~ ~ ! ~ ~ ",
"~ Q W ~ ~ ~ ~ M j , < 2 3 e e e e e e w e e f j M } ~ ~ ~ Q Q ~ ",
"~ Q M W ~ ~ ~ } M & < 2 q q e ^ [ [ _ _ [ [ / b } ~ ~ ~ W S ~ ~ ",
"~ Q j b W ~ ~ ~ ~ 9 f f f f f a.k.m.M.n.b.b.e.m ~ ~ ~ W c M ~ ~ ",
"~ Q j c M W ~ ~ ! Z ] ] ] ] ( k.c.m.z.l.z.M.a.m ~ ~ W c j S ~ ! ",
"~ Q c c c M W ~ ~ 8 a s a s a d.l.N.n.x.N.c.u.v ~ W c j c S } ~ ",
"~ Q j c c c M W T 1 3 < 2 2 # <.r.g.h.g.g.u.X.M W c j c c S } ~ ",
"! Q c c c c c c - q e e e K I l z >.j.j.6.l & b j j c c c T } ~ ",
"! Q j c c c j > @ q e e e -.f.i.O.7.q.4.5.y.C * : j j c c S } ~ ",
"~ Q j c c > j , # 2 q r e p =.y.8.' q e L t.7 % , j , c b S } ~ ",
"~ Q c c b , c , % . O = 2 3 3 = 2 e q q q @   : g c , c c T } ~ ",
"~ Q j c c , b , *     o c ; $ 0 - $ ; $ O     * , c , c c T } ~ ",
"~ Q j j j > c g *       $ v F #.N 9 J & O     % g c > j j M } ~ ",
"! Q j j j > c g *     . t e 2.<.7 7 ,.p.d .   % g c > j j M } ~ ",
"~ Q c c c g c , %     1 e 3 ) J A H D  .9 <   : g c g c c T } ~ ",
"! Q j c c g c , *   # U 5 k H H D F H H V u   % , c , c c T } ~ ",
"! Q j c c g j > % % B 0.:.J J o.F D J o.| *.+ % > j , c c T } ~ ",
"~ Q c c b c j > c ~ &.4.@.H A H A H A H ..9.! j : j c c b S } ~ ",
"! E c c c c c b ~ ~ G { z l k z n n n h x  .W } c j c c c T } ~ ",
"~ ! c c c b M } ! ~ T D { l : 3 3 3 e ` P D S ~ } M j c c S ~ ~ ",
"~ Q c c c M } ~ ! ~ n J P x x @ O < w.s.;.H n ~ ~ } M j c S } ~ ",
"~ Q j c S } Q ~ ~ W j h D % 1 $ , j 3.1.r > T ~ ~ ~ ~ M j T ~ ~ ",
"~ Q j M } ~ Q Q W c j j & 3 3 j c c c q q ; M W ~ ! ~ ~ M M } ! ",
"! Q M } ! ~ ~ W c j c c 1 q q v M M i q w 6 c M W ! ~ ~ } Q ~ ~ ",
"! ~ } ~ ~ ~ Q c j c c c J { { l M M l  .o.{ c c M W ~ ~ ~ } ~ ~ ",
"~ ~ ~ ~ ~ W c j c c c c n P F j M M j D H l c b c M W ~ ~ ~ ~ ~ ",
"~ ~ ~ ~ W S M S S M A { F o.J n W R M H o.P { A M S T W ~ ~ ~ ~ ",
"~ ~ ~ ! Q ~ } ~ ~ G %.%.+.+.+.A ~ ~ A +.+.+.%.%.G } ~ Q ! ~ ~ ~ ",
"~ ~ ~ ~ ~ ~ ~ ~ Q D P J H D F l Q Q z H A F H H x ~ ~ ~ ~ ~ ~ ~ "
};
