/* XPM */
static char *xpm_[] = {
/* columns rows colors chars-per-pixel */
"64 64 196 2 ",
"   c #090600",
".  c #0C0902",
"X  c #060300",
"o  c #120B01",
"O  c #160F04",
"+  c #1B1202",
"@  c #16181F",
"#  c #1B1B1B",
"$  c #231600",
"%  c #281902",
"&  c #3B2501",
"*  c #372403",
"=  c #2A261F",
"-  c #2A261F",
";  c #3F331F",
":  c #171920",
">  c #1A1C25",
",  c #1D1F28",
"<  c #1E2029",
"1  c #242424",
"2  c #22242F",
"3  c #2C2C2C",
"4  c #3A3020",
"5  c #252733",
"6  c #272936",
"7  c #2B2E3D",
"8  c #2D303F",
"9  c gray20",
"0  c #3E3E3E",
"q  c #372F20",
"w  c #452C01",
"e  c #4D3101",
"r  c #5A3800",
"t  c #513E1F",
"y  c #42351F",
"u  c #613D00",
"i  c #413523",
"p  c #5A441F",
"a  c #674000",
"s  c #6D4502",
"d  c #7A4D00",
"f  c #744E0D",
"g  c #7F5104",
"h  c #584421",
"j  c #6D5121",
"k  c #7F5B20",
"l  c #2E3140",
"z  c #323646",
"x  c #333748",
"c  c #36394C",
"v  c #383C4F",
"b  c #383D50",
"n  c #3D4155",
"m  c #3E4358",
"M  c #564F4A",
"N  c #5B544E",
"B  c #4C4D59",
"V  c #41465D",
"C  c #5C5651",
"Z  c #54545D",
"A  c #5A585F",
"S  c gray28",
"D  c #655A51",
"F  c #665A4F",
"G  c #6C635C",
"H  c #68615A",
"J  c #73665B",
"K  c #76695E",
"L  c #796A5D",
"P  c #5E5C63",
"I  c #656166",
"U  c #6B6661",
"Y  c #6C6C6B",
"T  c #696567",
"R  c #716C66",
"E  c #7D6F64",
"W  c #7D7064",
"Q  c #7D756D",
"!  c #727272",
"~  c #7C7571",
"^  c #AC0F07",
"/  c #AC1008",
"(  c #A3241A",
")  c #BE361E",
"_  c #B83A25",
"`  c #DE380F",
"'  c #DE3910",
"]  c #835302",
"[  c #895906",
"{  c #9C6201",
"}  c #976003",
"|  c #AB6C01",
" . c #A46700",
".. c #B16F00",
"X. c #B37100",
"o. c #BF7800",
"O. c #8C6421",
"+. c #966B21",
"@. c #A87722",
"#. c #C57C00",
"$. c #C97E00",
"%. c #9C6754",
"&. c #82705E",
"*. c #9C725F",
"=. c #837466",
"-. c #847568",
";. c #8C7B6E",
":. c #887665",
">. c #847B73",
",. c #8B7E74",
"<. c #837A79",
"1. c #897F7C",
"2. c #917F70",
"3. c #9C7562",
"4. c #D38501",
"5. c #DC8A00",
"6. c #D58804",
"7. c #CA8003",
"8. c #E28E01",
"9. c #E59102",
"0. c #E99302",
"q. c #F09700",
"w. c #8D817A",
"e. c #93857B",
"r. c #988779",
"t. c #9E8B7C",
"y. c #958477",
"u. c #AF826F",
"i. c #A18E7F",
"p. c #AE8E7C",
"a. c #B18C7C",
"s. c #8D8D8C",
"d. c #898785",
"f. c #958E87",
"g. c #94928E",
"h. c #9D938C",
"j. c #9F9187",
"k. c #939291",
"l. c #9A9A9A",
"z. c #989897",
"x. c #A18F81",
"c. c #A49284",
"v. c #A4968B",
"b. c #A39A8D",
"n. c #AB9A8D",
"m. c #A89687",
"M. c #B09E8F",
"N. c #B39485",
"B. c #AC9D92",
"V. c #A09F9F",
"C. c #B19F90",
"Z. c #AFA38F",
"A. c #B7A88F",
"S. c #AEA197",
"D. c #B5A395",
"F. c #BAA697",
"G. c #BDA897",
"H. c #B4A69B",
"J. c #BBA798",
"K. c #BEA999",
"L. c #A5A5A5",
"P. c #ABABAB",
"I. c #B5ABA3",
"U. c #BAB2AC",
"Y. c #B3B3B2",
"T. c #BAB6B1",
"R. c #BEB9B3",
"E. c #BEBEBE",
"W. c #B7B8B8",
"Q. c #C2AF8F",
"!. c #C7B28F",
"~. c #D4BB8F",
"^. c #DABE8F",
"/. c #C0AB9B",
"(. c #C6B3A5",
"). c #C3B5AC",
"_. c #C9B9AC",
"`. c #C2BEBA",
"'. c #DCC08F",
"]. c #D2C4BC",
"[. c #C4C4C5",
"{. c gray78",
"}. c #C3C3C3",
"|. c #CACACA",
" X c gray80",
".X c #CDCDCD",
"XX c #CFCFCF",
"oX c #CCCCCC",
"OX c #C8C7C7",
"+X c #DACDC4",
"@X c #D9CCC4",
"#X c #DED3CD",
"$X c #DCD0C7",
"%X c #CCCED0",
"&X c #E3D8D1",
"*X c #E1D6CE",
/* pixels */
"b b b b v b b b b b c b b b B P I I I Z I I I <.].#X#XK.m.u.u.u.u.u.p.D.+X*X].e.I I I A P I I I B v b b b b b b b b b b b v b b ",
"b b b b b b b b b b n c b B h.K.K.K.D.w.t.K.F.G.].&X#XN._ ' ' ' ' ' ) a.#X*X+XF.K.K.v.,.b.K.K.K.v.Z b b b b b b b b b b b b b b ",
"b b b v b b b v v b b n Z h.K.K.K.K.D.w.t.K.K.G.(._._.N.( / / / / / ( a._._.(.K.K.K.m.,.n./.K.G./.n.Z b b b b b b b b b b v b b ",
"b b b b b b b b b c z z h.K.K.K.D.c.t.-.e.t.t.j.t.t.i.t.3.%.%.%.%.%.*.i.t.t.t.i.t.t.t.-.r.c.D./.G.I.B.x x x v b b b b v b b b b ",
"b b b b b b b b b m l 5 D.G.K.D.i.K H U U R R R R R R R R R R R R R R R R R R R R R U U H J t.D./.G.I.6 6 8 b b b b b b b b b b ",
"b v b b b b b b b m b 5 D.K.K.i.K I P.P.}.}.{.}.{.}.{.}.}.}.}.}.[.[.[.[.[.[.[.[.[.[.[.P.Y.T J t.F.G.K., 5 b m b v b b b b b b v ",
"b b b b b b b b b b m b D.K.D.;.H W.OXE. X X X X|. X X X%X X X XoXoX X X X X X X|..X.XW.{.E.T -.D./.G.6 b n v b b b b b b b b b ",
"b b b c v b b b b b b m D.K.F.-.k.P.}.%X X X X X X X X X X X X XoXoX X X X X X X.X.X.X.X[.P.z.E D./.K.b V v b b b b b b c b b b ",
"b b b x x b b b b b b v D.K.F.-.k.OX|. X X X X X X X X X X X X XoX X X X X X X X X X X X|.{.l.E C./.K.m b b b b b b b x z b b b ",
"b b b z l x b b b b b b D.K.F.-.k.XX X X X X X X XOXOXOX{.{.{.[.{.{.{.{.{.OX X X X X X X.XXXl.E D./.I.b b b b b b b x z b b b b ",
"b b b z 7 7 x b b b b b D.K.F.-.k..X X X X X X XE.E.E.E.E.E.E.E.E.[.E.E.}.E.E.|. X X X XoX.Xl.E F./.K.v b b b b b x 7 x m b b b ",
"b b b x 6 2 7 x b b b b D.K.F.-.k. X|. X|.|.OXE.}.V.! ! ! ! Y T Y ! ! ! Y d.W.}.|.|.|.|.|. Xl.E C./.K.v v b b b x 7 5 z m b b b ",
"b b b x 6 , 6 l x b b b D.K.F.-.s.E.E.E.E.E.E.OXP.9 3 3 1 = # # # 3 9 3 # 9 s.[.E.E.E.E.E.}.k.W F./.F.v b b b x 7 2 , x m b b b ",
"b b b x 6 , 2 6 l x b b D.K.F.-.k.XX.X X X X XXXl.3 9 1 3 # # # 1 9 9 1 = 3 ! .X X X.X.X|..Xl.E F.F./.v b b x l 5 , 2 x m v b b ",
"b b v x 6 , 2 5 6 l x b D.K.F.-.k.XX XXX X XXXXXl.9 3 1 3 # # # 3 9 9 > 1 3 Y %X.X.X.X%X.X.Xl.E F.F.K.v b x 7 5 > 2 5 c m b b b ",
"b b b x 6 , 2 5 6 6 l x D.G.F.-.s.{.E.}.E.}.E.OXL.9 1 3 > # # # 9 9 3 # 3 1 Y |.}.E.}.E.}.}.z.E F./.K.b x 7 2 , < 5 5 c m v b b ",
"v b b x 6 , 2 6 5 5 6 l D.K.F.-.g.OXOXOXOXOX{.E.W.Y 9 9 3 3 3 9 0 0 9 3 0 S L.E.OXOX{.[.{.|.z.E D./.G.z 7 5 > < 6 5 5 x m b b b ",
"b b b x 6 , 2 5 5 5 5 6 D.K.F.-.~ I.I.I.I.I.U.].E.W.L.P.P.L.L.P.P.P.P.P.L.Y.E.|.T.I.I.I.I.I.>.E F.F.K.7 2 , 2 5 5 5 6 c m b b b ",
"b b b x 6 , 2 5 5 5 5 5 D.G.F.-.F r.r.r.t.r.r.S.[.{.{.{.[.[.[.[.[.[.[.[.[.[.|.I.i.t.t.t.t.r.F E F.K.K.5 , 2 5 5 5 5 5 c m b b b ",
"b b b z 6 , 2 5 5 5 5 5 D.G.F.-.~ I.I.I.I.I.H.j.S.R.R.R. X.X.X.X.X.X.X|.R.R.H.i.B.I.H.I.I.I.<.E D.K.K.> < 5 5 5 5 5 5 c m b b b ",
"b b b x 6 , 5 5 5 5 5 5 D.G.F.-.k.XX.X.X.X.X|.U.x.t.t.m.{. X X XoX X.XR.i.t.t.I.|.oXoX.X XXXl.E F.G.K.2 5 5 5 5 5 5 6 c m b b b ",
"v b b x 6 , 2 5 5 5 5 5 D.G.F.-.g..X.X.X.X.X.X.XT.Z.B.H.OX X X X X X.X`.B.n.I. X X XoXoX%XXXl.E D.G.K.5 5 5 5 5 5 5 5 c m b b b ",
"b b b x 6 , 2 5 5 5 5 5 D.G.F.-.k.XX.X|..X|..X|..X|.|.|..X|. X XoXoXoXoX X X X X X XoX X|.XXl.E F./.K.6 5 5 5 5 5 5 5 c m b b b ",
"b b b x 6 , 2 5 5 5 5 > D.G.F.-.k.XX.X|..X.X.X.X|..X.X.X.X.X X XoXoXoXoX X X X X X X X X|.XXl.E D.G.K.: > 5 5 5 5 5 5 c m b b b ",
"b b v x 6 < 2 5 5 5 2 @ D.G.D.-.k..X|..X X X X X X X X X X X X XoXoX X X X X X X X X X X XXXl.E D.K.K., @ 2 5 5 5 5 5 c m b b b ",
"b b b x 6 < 2 5 5 5 2 : D.G.K.-.k.XX.X.X X X X X X X X X X X X X X X X X X X X X X X X X XXXl.E D.G.K.5 > 2 5 5 5 5 6 c m b b v ",
"b b b x 6 < 2 5 5 5 2 : D.G.F.-.k.XX|..X X X X X X X X X X X X X X X X X X X X X X X X X XXXl.E D./.G.5 > 2 5 5 5 5 5 c m b b b ",
"b b v x 6 < 2 5 5 5 5 > D.G.F.-.k.XX|..X X X X X X X X X X X X X X X X X X X X X X X X X XXXl.E D././.5 : 2 5 5 5 5 5 c m b b b ",
"b b b x 6 < 2 5 5 5 2 : D./.G.-.k.XX X X X X X X X X X X X X X X X X X X X X X X X X X XoXXXl.E D./.F.5 : 2 5 5 5 5 5 c m v b b ",
"b b v x 6 < 2 5 5 5 2 > D.K.D.-.g.XX X X X X X X X X X X X X X X X X X X X X X X X X X XoXoXl.E F././.5 > 2 5 6 5 5 5 c m b b b ",
"b b b x 6 < 2 5 5 6 2 : D.G.G.-.k..X X X X X X X X X X X X X X X X X X X X X X X X XoXoXoXXXl.E C./.G.5 > 2 5 5 6 5 6 c V b b b ",
"v b b x 5 : < < < < > : D.K.G.-.k.XX X X X X X X X X X X X X X X X X X X X X X X X X XoXoXXXl.=.D./.K.5 : > < < < < < x b v b b ",
"n v n z 5 @ : < < < > @ v.t.n.-.g..X X X X X X X X X X X X X X X X X X X X X X X X X X X X.Xl.W B.r.B.6 @ > > > , > > x m b b b ",
"c v v z 5 < 5 6 5 6 < > >.M y.-.g..X X X X X X X X X X X X X X X X X X X X X X X X X X XoXXXl.W r.M >.5 : 2 6 6 6 6 5 v m b b b ",
"n c v z 6 < 2 5 5 5 5 : Q G <.G k.%X X X X X X X X X X X X X X X X X X X X X X X X X X XoXXXl.D >.G -.6 > 5 5 5 5 5 5 c m b b b ",
"n c n z 6 < 2 5 5 5 < : w.N e.-.g.%X X X X X X X X X X X X X X X X X X X X X X X X X X XoXoXl.=.j.N <.5 : 2 5 5 5 5 5 c m b b b ",
"c n c z 6 < < 5 5 5 < < v.t.n.-.g.XX.X.X X X X X X X X X X X X X X X X X X X X X X X X XoX.Xl.E n.t.n.5 : 5 5 5 5 5 5 c m b b b ",
"n c n z 6 < 5 5 5 5 2 : D.K.K.-.k.%X.X.X X X X X X X X X X X X X X X X X X X X X X X X XoX%Xl.E F./.K.5 : 2 5 5 5 5 6 c m v b b ",
"c n n l 6 < 2 5 5 6 5 : D.G.G.-.k..X X X X X X X X X X X X X X X X X X X X X X X X XoXoXoX%Xl.E D.F./.2 : 2 5 5 5 5 5 c m b b b ",
"n c n z 6 < 2 5 5 6 < @ D.K.D.-.k..X X X X X X X X X X X X X X X X X X X X X X XoXoXoXoXoXXXl.E F.F.K.< : 5 5 5 5 5 5 c m b v b ",
"c n n l 5 , 2 5 5 5 5 < D.K.F.-.k.{.}.}.|. X X X X X X X X X X X X X X X X X X X X X|.}.[. Xl.E D.K.G., > 5 6 5 5 5 5 c V b b b ",
"n c n z 6 , 2 5 5 5 5 5 Z.K.G.-.k.E.Y.Y.}. X X X X X X X X X X X X X X X X X X X X X[.Y.Y.E.l.E D.G.K.5 6 5 5 5 5 5 6 c b b b b ",
"x n n z 6 , 2 5 5 5 5 5 D.G.G.-.k.E.Y.Y.}. X X X X X.X.X X X X X X X X X X XoXoX X X[.Y.P.E.l.E D././.5 5 5 5 5 5 5 5 c V b b b ",
"n x x z 6 , 2 5 6 5 5 5 D.G.D.-.k.E.P.Y.}. X X X X X X.X X X X X X X X XoXoXoXoX X X[.Y.P.E.l.E D././.< 5 5 5 5 5 5 5 c n b b b ",
"x n n z 6 , 2 5 5 5 5 5 D.K.F.-.k.E.Y.Y.}.%X.X.X%X%X.X%X|.%X%X%XoXoX.X.X.X.X.X.XoXoX[.Y.Y.}.l.E D./.F.> < 5 5 5 5 5 5 c V b b b ",
"n x n z 6 < 2 5 5 5 5 5 D.K.F.-.s.E.W.W.E.E.E.E.E.E.E.E.E.E.E.E.E.E.E.E.E.E.}.E.E.E.E.W.W.E.k.E F././.5 , 2 5 5 5 5 5 c b b b b ",
"n z n z 6 , 2 6 5 5 5 6 D.K.J.-.s.[.E.}.}.E.}.}.E.}.E.].}.E.].E.}.}.E.}.}.}.}.E.}.}.E.}.E.[.k.E D.G.G.b 6 > 2 5 5 5 5 c V b b b ",
"x n n x 6 , 2 5 5 2 7 n D.K.J.-.g..X.X.X.X.X.X.X X%X%X.X%X%X.X.X.X.X.X.X.X.XoXoX.X.X.X.XoX.Xl.E D./.G.V b 5 > < 5 5 5 z V b b b ",
"n n z z 6 < 2 5 5 7 n m V.I.G.-.g.P.{..X.X.X%X.X.X.X.X.X.X|..X.X.X XoXoX.X.X X|.oXoXoXoXOXP.z.=.D./.G.v m b 6 , < 5 5 x m b b b ",
"n z n z 6 < 2 5 6 m m b S.H.G.-.f.P.T.R.Y.Y.R.R.Y.T.R.Y.Y.`.R.Y.T.R.T.Y.T.T.Y.Y.).T.Y.T.T.P.s.&.F./.G.b b m b 6 , 2 5 v m b b b ",
"b b n z 6 < 2 6 n m b b D.K.F.-.4 3 O.+.- h @.h - O.O.- p @.h - +.@.4 y @.j - O.@.q y @.j 1 h &.D.G.K.b b b m b 5 , 2 x m b b b ",
"b b b z 6 > 6 n m b b b D.K.G.W . r 6.& + o.{   a 4.* $ $.] X d 9.r    .... e 5.r   | ..o w [ &.D.K.K.b b b b m b 5 > x m b b b ",
"b b b z 5 2 m m b b b b D.G.K.W * o.g    .4.% & 5.s . | $.+ e q.{   d 8.* % 5.} X ] 8.* % ..s L F./.K.b b b b b m b 6 x m b b b ",
"b b n z 7 n b b b b b b D.G.F.=.[ ] . s 9.w + $.{   d 9.& $ 5.7.+ w 9.u . X.#.o e 0.u . ....+ R F.G.K.b b b b b b m b b m b b b ",
"b b b z m b m b b b b b D.G.A.:.f + & 9.]   { $.+ e 9.s . | 0.& $ 4.} . ] 9.& % 6.{ o ] 8.* O L D./.G.b b b b b b b m V m v b b ",
"b b n n m b b b b b b b D.K.G.-.W k.K.'.h.h.^.A.g.Q.~.k.b.'.!.k.Z.'.b.g.~.!.g.D.^.b.k.~.Q.k.Q E D./.K.x b b b b b b b m b b b b ",
"b b b n b b b b b b b x H.K.F.-.k.Y.{.%X%XXX%X%XXX%X%XXX%XXXoXXXXX%XXXXX%X%XXXXXXXXXXXXX[.Y.l.E C./.J.l x b b b b b b b b b b b ",
"b b b b b b b b b b x l D.G.F.-.d.E.{.|.oXoXoX.XoXoXoXoXoXoXoXoX X X X X X X X X X X%X|.|.E.s.E D./.I.6 l x b b b b b b b b b b ",
"b b b b b b b b b x 7 < D.G.F.y.C l.OXP.oX%XXXXXXXXXXXXXXXXXXXXXXXXXXXXXXXXXXXXXXXXXXXP.|.L.C 2.D./.K.5 6 l x b b b b b b b b b ",
"b b b b b b b b x z x z D.G.K.c.2.C d.l.V.V.V.V.V.V.V.V.V.V.V.V.V.V.V.V.V.V.V.V.V.V.V.l.s.C -.v.F./.H.c c x z x b b b b b b b b ",
"b b b b b b b c x v m m H.K.K.K.v.2.K D D K L R K K K K R L L K K K K K R K K K U L J D U ;.c.K././.G.b b V b x v b b b b b b b ",
"b b b b b b b b b b b b >.K.K.K.K.C.n.,.n.M.C.C.C.M.M.M.C.C.C.C.C.C.C.C.Z.M.M.M.C.C.n.2.c.C.K.K././.d.b b b b b b b b b b b b b ",
"b b b b v b b b b b b b n ~ K.K.K./.F.-.2./.K.K././././.(.@X$X@X+X$X(././.K./././.(.r.>.n././././.<.S b b b b b b b b b b b b b ",
"b b b b b b b b b b b b b m ~ D.C.D.B.1.n.C.H.C.D.C.D.C.H.).).).).).I.C.D.D.C.D.C.C.n.e.v.C.H.C.1.n b b b b b b b b b b b b b b "
};
