/* XPM */
static char *xpm_[] = {
/* columns rows colors chars-per-pixel */
"64 64 125 2 ",
"   c #000000",
".  c #090807",
"X  c #100E0C",
"o  c #12100E",
"O  c #161311",
"+  c #191614",
"@  c #16181F",
"#  c #171920",
"$  c #1A1C25",
"%  c #1D1F28",
"&  c #1E2029",
"*  c #2E2924",
"=  c #22242F",
"-  c #312B26",
";  c #352F2A",
":  c #37302B",
">  c #38312C",
",  c #252733",
"<  c #272936",
"1  c #2B2E3D",
"2  c #2D303F",
"3  c #2E3140",
"4  c #323646",
"5  c #333748",
"6  c #36394C",
"7  c #383C4F",
"8  c #383D50",
"9  c #3D4155",
"0  c #3E4358",
"q  c #564D45",
"w  c #584F47",
"e  c #564F4A",
"r  c #5A534D",
"t  c #41465D",
"y  c #4C4D59",
"u  c #55545D",
"i  c #58565E",
"p  c #62574E",
"a  c #65594F",
"s  c #6B5E53",
"d  c #6E6156",
"f  c #6C635C",
"g  c #73665A",
"h  c #76685D",
"j  c #615E65",
"k  c #656167",
"l  c #666269",
"z  c #7E6F63",
"x  c #7F7063",
"c  c #7E756F",
"v  c #7B7474",
"b  c #817265",
"n  c #82766C",
"m  c #8C7B6D",
"M  c #867B72",
"N  c #8B7D73",
"B  c #837A79",
"V  c #897F7C",
"C  c #917F71",
"Z  c #DCAD1C",
"A  c #F4BD07",
"S  c #E1AF16",
"D  c #DABF22",
"F  c #DFC51C",
"G  c #F2E40A",
"H  c #AC9357",
"J  c #8D8177",
"K  c #8D827E",
"L  c #938274",
"P  c #93857A",
"I  c #96887C",
"U  c #9C8C7E",
"Y  c #A69163",
"T  c #A18E7E",
"R  c #B09D7C",
"E  c #B2A16D",
"W  c #B7A17D",
"Q  c #B8A27A",
"!  c #9D8D81",
"~  c #9F9082",
"^  c #9E918A",
"/  c #A18F80",
"(  c #A39182",
")  c #A89686",
"_  c #A4958B",
"`  c #AC9B8D",
"'  c #B19F8F",
"]  c #AE9E91",
"[  c #B19F91",
"{  c #B8A483",
"}  c #B9A488",
"|  c #B4A295",
" . c #B9A696",
".. c #BDA897",
"X. c #B6A69A",
"o. c #BBA798",
"O. c #BFAB9B",
"+. c #BEA999",
"@. c #BDAB9C",
"#. c #BEAB9C",
"$. c #BEAA99",
"%. c #C0AB9A",
"&. c #C0AC9C",
"*. c #C0AC9D",
"=. c #C0AB9B",
"-. c #C5B3A6",
";. c #C6B3A4",
":. c #C6B5A8",
">. c #C7B7AB",
",. c #C2B5AD",
"<. c #C9B8AC",
"1. c #C9B9AC",
"2. c #D1C3BA",
"3. c #D6C8BD",
"4. c #D7CBC2",
"5. c #DBCEC5",
"6. c #DACEC6",
"7. c #DBCEC5",
"8. c #DCD0C7",
"9. c #DDD1CB",
"0. c #DED2CA",
"q. c #DED4CD",
"w. c #DFD4CE",
"e. c #E1D6CF",
"r. c #E3D8D1",
/* pixels */
"8 8 8 8 7 8 8 8 8 8 6 8 8 9 y k l l j i l l k K 4.q.5.| R E E E E E R o.q.q.2.B k k l i j l k l y 6 8 8 8 8 8 8 8 8 8 8 7 8 8 8 ",
"8 8 8 8 8 8 8 8 8 8 9 6 8 y _ @.o.$.[ N ! o. ...5.r.0.W F G G G G G D } e.r.3...o.@.( N ] @.o.@.^ y 8 8 8 8 8 8 8 8 8 8 8 8 8 8 ",
"8 8 8 7 8 8 8 7 7 8 8 9 u ` @...%.$.[ N ! @.$.$.>.1.>.Q S A A A A A Z { 1.1.-.o.$.$.( N ` @.%.$.&.^ y 8 8 8 8 8 8 8 8 8 8 8 8 7 ",
"8 8 8 8 8 8 8 8 8 6 4 4 ] @...@.| ( T n U ( ( ( T T T T Y H H H H H Y T / T / / T ( U n U ( | &.$.@._ 5 5 5 7 8 8 8 8 8 8 7 8 8 ",
"8 8 8 8 8 8 8 8 8 9 3 , @.o.#.| T d : * - ; ; ; ; ; ; ; ; ; ; ; ; ; ; ; ; ; ; ; ; ; - * : h T | =.o.| < < 1 8 8 8 8 8 8 8 8 8 8 ",
"8 7 8 8 8 8 8 8 8 0 9 , @.$...U d X                                                       O h T o.$.[ % , 8 0 8 8 8 8 8 8 8 8 8 ",
"8 8 8 8 8 8 8 8 8 8 0 8 #...| b o                                                           + m  .%.| < 8 0 8 8 8 8 8 8 8 7 8 8 ",
"8 8 8 6 7 8 8 8 8 8 7 0 $... .g                                                             . z  .$.| 8 t 8 8 8 8 8 8 8 6 8 8 8 ",
"8 8 8 5 5 8 8 8 8 8 8 8 o.$. .g                                                             . x o.$.| 0 8 7 8 8 8 8 8 5 5 8 8 8 ",
"8 8 8 4 3 5 8 8 8 8 8 8 @.$. .g .                                                           . x o.$.X.8 8 8 8 8 8 7 5 4 7 8 8 8 ",
"8 8 8 5 1 1 5 8 8 8 8 8 $.$.| g                                                             . x  .$.| 8 8 8 8 8 8 5 1 5 0 8 8 8 ",
"8 8 8 5 , = 3 5 8 8 8 8 $... .g .                                                           . x  .$.| 8 8 8 7 7 5 1 , 4 0 8 8 8 ",
"8 8 8 5 < & , 3 5 8 8 8 @.$. .g                                                             . x  ...| 8 8 8 8 5 1 , % 5 0 8 8 8 ",
"8 8 7 5 < % , , 3 5 8 8 $.$.| g .                                                           . x  .$. .8 8 8 5 3 , & & 5 0 7 8 8 ",
"8 8 8 5 < % , , , 3 5 8 $.$. .g                                                             . x  .$.| 8 7 5 1 , $ & , 6 0 8 8 8 ",
"8 8 8 5 , % = , , < 3 5 $... .g .                                                           . x  .$.| 8 5 1 , & & , , 6 0 7 8 8 ",
"7 8 8 5 , & = , , , < 2 #...| g .                                                           . x ..$.| 5 1 = % & , , , 6 0 8 8 8 ",
"8 8 8 5 < & = , , , , < #.#. .g .                                                           . x  .$. .1 = % = , , , , 6 0 8 8 8 ",
"8 8 8 5 , & = , , , , , #... .g                                                             . x  ...| , % = , , , , , 6 0 8 8 8 ",
"8 8 7 5 < & , , , , , , #... .g                                                             . x  .$.| $ & , , , , , , 6 0 8 8 8 ",
"9 7 9 4 < & = , , , , , #... .g .                                                           . x o.$.| & , , , , , , , 7 0 8 8 8 ",
"6 7 7 4 < & = , , , < , #... .g                                                             . x ....| , , , , , , , , 6 0 8 8 8 ",
"9 6 7 4 , & = , , , , , @...| g                                                             . x  ...| , , , , , , , , 6 0 8 8 8 ",
"9 6 9 5 < & = , , , = $ #... .g .                                                           . x ..$.| $ $ , , , , , , 6 0 8 8 8 ",
"6 9 6 4 < % = < = < = @ @... .g                                                             . x  ...| & @ = , , , , , 6 t 8 8 8 ",
"9 6 9 4 < % = < < = = # @... .g .                                                           . x ..%.| = # = , , , , , 7 8 8 8 8 ",
"6 9 9 3 < % = < < = = $ @...| g .                                                           . x  .o.| , $ = , , , , , 5 t 8 8 8 ",
"9 6 9 4 < % = = , < = $ @... .g                                                             . x  .%.| , $ = , , , , , 7 0 8 8 8 ",
"6 9 9 3 < $ = < , , = $ X.X. .g                                                             . x ....| , $ = , , , , , 5 0 7 7 7 ",
"9 6 9 4 < % = < , , = $ @.@. .g .                                                           . x  ...| , # = , < , , , 7 t 6 8 7 ",
"5 9 9 4 < % = < , , = $ @.@. .g                                                             . x ....| , # , , , , < , 6 0 8 8 8 ",
"9 5 5 4 < @ % % & & $ @ @.@. .g .                                                           . x o.%.| , # $ & & & & & 5 0 8 8 7 ",
"8 8 8 5 , # $ % % % $ # ` U ` g .                                                           . x ` U _ , @ $ $ & & $ & 4 0 8 8 8 ",
"8 8 8 5 < % = , , < & # M e I g                                                             . z P e M , $ = , , , , , 6 0 8 8 8 ",
"8 8 8 4 < % , , , , , $ n f N p                                                             . d m l c , # = , , , , , 6 0 8 8 8 ",
"8 8 8 5 < % = , , , = $ N r ! h .                                                           . b I r M , $ , , , , , , 7 0 8 8 8 ",
"8 8 8 5 < % , , , , = $ ` ! ` g                                                             . x ` U _ , # = , , , , , 6 0 8 8 8 ",
"8 8 8 5 < % = , , , & $ @.$. .g .                                                           . x ..#.| , $ = , , , , , 6 0 7 8 8 ",
"8 8 8 5 < % = , , , , # @.$. .g .                                                           . x ....| = # = , , , , , 6 0 8 8 8 ",
"8 7 8 5 < % = , , , = # $... .g                                                             . x  .$.| & @ = , , , , , 6 0 8 7 8 ",
"8 8 8 5 < & & < , , , % $.$.| g                                                             . x  .$.| % % , , , , , , 6 0 8 8 8 ",
"8 8 8 5 < & & < , , , , $.$. .g .                                                           . x  .$.| , , , , , , , , 6 0 8 8 8 ",
"8 8 8 5 < & , , , , , , $... .g                                                             . x  .$.| , , , , , , , , 6 0 8 8 8 ",
"8 7 8 4 < & & , , , , , @.$. .g .                                                           . x ....| & , , , , , , , 7 0 8 8 8 ",
"8 8 9 5 < & , , , , , , $... .g .                                                           . x  ...| $ & , , , , , , 6 0 8 8 8 ",
"8 8 6 4 < & & , , , , , $...| g                                                             . x ..$. ., & & , , , , , 6 0 8 8 8 ",
"8 7 7 4 , & , , , , , 1 @.$. .g                                                             . x o.$.| 9 , $ = , , , , 6 0 8 8 8 ",
"6 9 9 5 < & = , , , 1 8 $.$. .g .                                                           . x  .$.| 0 9 , $ = , , , 6 0 8 7 8 ",
"9 9 6 4 < % = , , 1 9 0 X.@.X.g                                                             . x  .$. .7 0 9 = $ & , , 6 0 8 8 8 ",
"6 6 9 5 < % = < < 9 0 8 X.X.X.g .                                                           . x ..o.| 8 8 0 9 , $ = , 6 0 8 8 8 ",
"6 9 9 3 < % = < 9 0 8 8 @... .g                                                             . x ..$.| 8 8 8 0 8 , $ = 6 0 8 8 8 ",
"9 6 9 4 < % , 9 0 8 8 8 @...X.g .                                                           . x  .$.| 8 8 8 8 0 9 , $ 5 0 8 8 8 ",
"6 9 9 3 < = 9 9 9 6 6 9 @... .g                                                             . x o.$. .8 8 8 8 8 0 0 , 4 0 8 8 8 ",
"9 6 9 4 1 9 0 8 6 9 6 6 @... .g .                                                           . x ....| 8 8 8 8 8 8 0 8 8 0 8 8 8 ",
"6 9 5 5 9 0 8 8 9 6 7 9 @... .g                                                             . b  .$.| 8 8 8 8 8 8 8 0 0 0 8 8 8 ",
"9 5 9 0 0 8 8 8 6 9 7 7 @... .g .                                                           . z ..o.| 5 8 8 8 8 8 8 8 0 9 8 8 8 ",
"8 8 0 0 9 5 9 9 9 6 9 4 X.X. .g .                                                           . b X.@.| 3 5 8 8 8 8 8 8 8 8 8 8 8 ",
"8 8 8 5 9 9 4 5 6 9 5 3 @.@. .g                                                             . b o.@.] < 3 5 8 8 8 8 8 8 8 8 8 8 ",
"8 8 5 9 5 9 5 9 9 6 1 = $.O.| J -                                                           > L  .o.] < < 3 4 8 8 8 8 8 8 8 8 8 ",
"8 8 9 5 9 5 9 9 3 3 6 3 $.O.@.T m -           .       .             .     .       .       > C ) #...X.5 5 6 4 4 8 8 8 8 8 8 8 8 ",
"8 8 5 8 9 5 9 5 3 9 9 9 @.O.O...( m d w p s s s d s s s s s s s s s s s s s s s d s p q d L ) #.....X.0 0 0 8 4 6 8 8 8 8 8 8 8 ",
"8 8 8 8 5 9 5 9 9 4 9 9 K @.$.$.@.[ ` N ` [ [ [ ' ' ' ' ' [ [ | | [ [ ' [ ' | ' ' ' ` J ( | #...$.@.B 7 8 8 8 8 8 8 8 8 8 8 8 8 ",
"8 8 8 8 5 9 6 9 6 9 9 5 9 J @.O.@.@.| n L &.@.=.=.@.%.$.-.0.5.5.5.5.-.@.$.$.$.%.#.#.L M ' #.#.#.@.v 9 7 8 8 8 8 8 8 8 8 8 8 8 8 ",
"8 8 8 8 9 5 9 6 9 6 9 5 9 9 K | [ | ` J ` | [ | | | | | o.,.,.,.,.,.| | | | | | | | ` P _ | | | v 9 7 7 8 8 8 8 8 8 6 8 8 8 8 8 "
};
