/* XPM */
static char *xpm_[] = {
/* columns rows colors chars-per-pixel */
"64 64 164 2 ",
"   c #030302",
".  c #080707",
"X  c #0E0C0C",
"o  c #12100F",
"O  c #161414",
"+  c #191716",
"@  c #1A1817",
"#  c #1D1A19",
"$  c #221E1C",
"%  c #24201E",
"&  c #262220",
"*  c #292523",
"=  c #2F2A27",
"-  c #2C2C2C",
";  c #332E2B",
":  c #36302D",
">  c #38322F",
",  c #353535",
"<  c #3C3632",
"1  c #3C3836",
"2  c #37383D",
"3  c #3D3D3D",
"4  c #403A36",
"5  c #443E3A",
"6  c #45403D",
"7  c #4A423E",
"8  c #373B4D",
"9  c #393E4F",
"0  c #383D50",
"q  c #3F4040",
"w  c #3F4354",
"e  c #444343",
"r  c #4D4643",
"t  c #4F4845",
"y  c #4C4C4C",
"u  c #504743",
"i  c #514A45",
"p  c #544D4A",
"a  c #50504F",
"s  c #5B524D",
"d  c #404455",
"f  c #4C4E5D",
"g  c #555454",
"h  c #5E5551",
"j  c #5A5857",
"k  c #55565A",
"l  c #5C5B5A",
"z  c #605651",
"x  c #645B55",
"c  c #655E5B",
"v  c #685E59",
"b  c #63605F",
"n  c #6C625D",
"m  c #70655F",
"M  c #535463",
"N  c #5C5C63",
"B  c #616060",
"V  c #6B6664",
"C  c #6F6C6B",
"Z  c #726660",
"A  c #746A63",
"S  c #7A6E67",
"D  c #716C6A",
"F  c #796E69",
"G  c #7E726B",
"H  c gray46",
"J  c #7C7574",
"K  c #7C7875",
"L  c #75747E",
"P  c #7C7679",
"I  c #7D7A7A",
"U  c #80746D",
"Y  c #807772",
"T  c #867B74",
"R  c #887C75",
"E  c #847E7B",
"W  c #8C7F79",
"Q  c #86827F",
"!  c #8E827B",
"~  c #92857E",
"^  c #7D7B80",
"/  c #878584",
"(  c #898482",
")  c #8A8887",
"_  c #898888",
"`  c #938680",
"'  c #948984",
"]  c #9A8D86",
"[  c #968D89",
"{  c #9C8F88",
"}  c #96908D",
"|  c #9D918C",
" . c #969595",
".. c #9B9490",
"X. c #9C9C9C",
"o. c #A2958E",
"O. c #A49790",
"+. c #A59993",
"@. c #AB9D96",
"#. c #A69C9A",
"$. c #AA9E9A",
"%. c #AEA29C",
"&. c #B2A59E",
"*. c #A7A7A7",
"=. c #ACA4A0",
"-. c #AAAAAA",
";. c #B1A6A0",
":. c #B5A9A3",
">. c #BAABA2",
",. c #BBAFA9",
"<. c #BDB1AA",
"1. c #B5B5B5",
"2. c #BEBEBE",
"3. c #C3B5AD",
"4. c #C8B7AF",
"5. c #C8B8AF",
"6. c #C2B6B0",
"7. c #C6BBB4",
"8. c #C9BDB7",
"9. c #CABEB8",
"0. c #D0BFB7",
"q. c #CEC1B9",
"w. c #D1C0B7",
"e. c #D2C2B9",
"r. c #D3C2B9",
"t. c #D2C1B8",
"y. c #D4C3BA",
"u. c #D0C3BC",
"i. c #D1C5BE",
"p. c #D0C4BD",
"a. c #D2C1B8",
"s. c #C5C5C5",
"d. c #CCCCCC",
"f. c #D1C7C0",
"g. c #D2C7C0",
"h. c #D5C7C0",
"j. c #D5C7C0",
"k. c #D3C8C1",
"l. c #D5C8C1",
"z. c #D4C9C2",
"x. c #D4CAC4",
"c. c #D7CDC6",
"v. c #D5C8C1",
"b. c #DBCEC7",
"n. c #D8CDC6",
"m. c #DCCFC7",
"M. c #DBCFC8",
"N. c #D8CEC8",
"B. c #DCD0C9",
"V. c #DDD1CA",
"C. c #DDD2CB",
"Z. c #DED2CB",
"A. c #DED3CC",
"S. c #DFD3CC",
"D. c #DFD3CD",
"F. c #DFD4CD",
"G. c #E0D3CD",
"H. c #E0D4CD",
"J. c #E0D5CE",
"K. c #E0D5CF",
"L. c #E0D6CF",
"P. c #E1D6CF",
"I. c #E2D7CF",
"U. c #E2D7D0",
/* pixels */
"0 0 0 0 0 0 0 8 0 k N j j j k y y B B b B B B B B B B B B B B B B B B B B B B B B B B B B B b a y j g j k B k w 8 8 0 0 0 0 0 0 ",
"0 0 0 0 0 0 f ^ ^ ( E k y y y 3 y / / Q / / ( ( / ( ( ( ( / ( ( ( ( ( / ( ( ( ( ( ( / ( ( / ( g 2 y a y a I / ^ L f 0 0 0 0 0 0 ",
"0 0 0 0 0 f =.Z.D.U.9.k y a a 3 [ L.F.F.F.F.F.F.F.F.F.F.F.F.F.F.F.F.F.F.F.F.F.F.F.F.F.F.F.F.I.#.q y y y g ,.U.F.C.%.f 0 0 0 0 0 ",
"0 0 0 0 f $.y.V.D.U.<.a e e y a 7.U.F.F.H.H.H.H.H.F.F.F.F.F.U.H.F.F.H.H.U.H.F.F.F.U.F.F.F.H.H.k.g y y e y =.U.L.N.u.#.f 0 0 0 0 ",
"0 0 0 f $.e.y.V.F.I.=.e , 3 e I F.F.I.I.H.H.H.I.I.F.F.F.H.F.F.F.H.Z.H.H.F.F.F.F.F.F.U.U.I.H.H.I.) y q , q  .U.F.M.r.r.#.f 0 0 0 ",
"0 0 f $.0.r.y.M.F.I. .2 , 3 a ,.U.F.F.F.I.I.H.H.I.k.@.%.n.:.O.9.8.O.,.n.%.@.k.L.U.F.F.F.F.H.I.I.6.j q - 1 Q L.F.M.r.r.r.#.f 0 0 ",
"0 f $.r.e.r.r.M.I.F.} a e g I N.I.F.F.I.H.H.H.H.H.q.G a q.o.t O...i O.q.p G i.U.U.F.F.F.F.I.H.H.A.) j y y Q A.L.n.r.r.q.r.#.f 0 ",
"M #.r.r.r.0.0.M.I.F.N.f.q.f.c.L.F.I.F.F.F.I.H.H.U.i.n # 7.| + Q T # o.1.# n k.U.F.F.U.U.F.F.H.H.F.N.i.q.q.x.F.F.n.r.r.r.r.r.#.f ",
";.9.q.q.w.q.q.M.F.F.H.H.H.H.H.H.G.G.G.G.G.G.H.H.H.r.v $ 3.o.@ R K # o.<.$ n y.G.G.G.G.G.G.G.G.H.G.G.H.H.H.H.G.V.M.r.9.r.9.r.9.=.",
"9.8.8.9.8.8.8.l.r.w.t.t.t.t.t.t.r.r.t.t.t.t.y.t.y.4.v @ &.] @ U G # | :.@ v 4.y.t.t.t.t.y.t.t.t.t.y.t.y.t.9.t.r.j.9.9.9.8.8.8.8.",
"8.9.9.7.8.8.9.l.5.{ &.w.t.t.t.t.t.t.t.t.t.t.t.t.y.3.A 4 3.] 4 ! W 4 { >.4 S 4.r.t.t.t.t.t.t.t.t.t.t.t.t.5.o.&.0.j.9.8.7.8.8.8.8.",
"8.8.9.7.9.8.8.l.8.{ ! &.t.t.t.t.t.t.t.t.t.t.t.t.t.3.~ ~ 4.o.W >.&.W o.4.~ ~ 3.r.t.t.t.t.t.t.t.t.t.t.t.4.] R >.r.j.9.8.9.8.8.8.7.",
"9.9.7.9.7.7.q.f.y.5.] T &.t.t.t.t.t.t.t.t.t.t.t.t.0.&.3.0.>.>.5.5.>.3.0.&.3.0.0.t.t.t.t.t.t.t.t.t.y.5.] R >.r.r.f.9.9.7.8.9.9.7.",
"7.9.7.9.q.7.q.f.t.y.5.o.R &.t.t.t.t.t.t.t.t.t.t.t.t.t.0.t.y.y.r.t.t.y.t.0.0.t.t.t.t.t.t.t.t.t.t.t.5.] R :.r.0.r.j.9.8.9.9.7.9.7.",
"9.7.9.9.8.8.w.n.t.t.t.8.] T &.t.t.t.t.t.t.t.t.t.t.t.t.t.t.t.t.t.t.t.t.t.0.t.t.t.t.t.t.t.t.t.t.t.5.] R &.r.0.r.r.j.9.7.9.9.8.7.7.",
"9.9.9.7.8.7.q.y.t.t.t.t.5.o.R &.0.t.t.t.t.t.t.t.t.t.t.t.t.t.t.t.t.t.t.t.r.t.t.t.t.t.t.t.t.t.t.5.] ! >.y.r.r.0.0.j.9.9.9.7.9.9.7.",
"7.9.9.9.7.7.9.j.t.t.t.t.t.8.o.] 5.t.r.t.t.t.t.t.t.t.t.t.t.t.t.t.0.r.r.r.r.0.r.r.t.t.t.t.t.r.y.>.~ &.r.t.t.t.t.t.y.q.7.9.9.9.7.7.",
"8.9.7.9.9.9.9.j.t.t.t.t.t.y.0.5.t.t.r.y.t.t.t.t.y.y.t.t.t.t.t.t.r.r.0.0.r.r.r.r.t.t.t.r.t.r.y.5.5.w.t.t.t.t.t.t.l.q.9.9.7.9.q.7.",
"7.7.9.8.8.8.9.j.t.t.t.t.t.t.t.t.t.t.t.y.y.y.r.r.y.y.t.t.r.y.y.y.r.r.0.r.r.r.y.y.r.r.y.y.r.r.w.t.r.t.t.t.t.t.t.t.l.q.7.7.9.9.9.7.",
"9.9.9.8.8.9.9.j.t.t.t.t.t.t.t.t.t.y.5.&.>.>.>.&.&.3.&.&.&.>.>.>.>.>.>.>.>.>.>.&.>.>.>.>.&.4.y.y.t.t.t.t.t.t.t.t.i.q.7.q.7.7.9.7.",
"8.9.8.8.8.8.9.f.t.t.t.t.t.t.t.t.y.>.! U U U U U U U U U U U U G U U U U U U U U U U U U U ! 3.y.t.t.t.t.t.t.t.t.f.9.9.9.9.9.9.7.",
"8.8.8.8.8.8.9.j.t.t.t.t.t.t.t.t.3.R U U m n v v s h x s z n x b v v x s z x s x v v n m U S ! >.r.t.t.t.t.t.t.t.l.9.7.7.9.7.9.7.",
"8.8.8.8.8.9.9.f.t.t.t.t.t.t.y.5.! U U m 5 = ; = . @ *   # : : : ; ; *   $ % . % ; = ; 7 m U S ! 5.t.t.t.t.t.t.t.j.9.9.9.7.9.7.7.",
"8.9.8.8.8.8.9.j.t.t.t.t.t.t.y.>.U U m 7 : 4 4 ; . @ =   % < < < 4 4 =   $ %   % 4 4 4 : 7 m U U &.y.t.t.t.t.t.t.j.9.7.9.9.9.9.7.",
"8.9.9.7.8.8.9.j.0.y.0.y.t.t.y.&.U U 7 4 6 7 7 4 . $ >   * 7 7 7 5 5 <   * ;   ; 7 6 7 5 : p U U &.y.t.t.t.t.t.t.j.9.7.9.9.9.9.7.",
"9.7.9.9.8.8.9.f.y.0.y.0.t.t.t.>.U m 7 4 7 p n b e g b e j V V V Z Z c e j j e l V V p 7 4 p S U 3.y.t.t.t.t.t.t.j.9.9.9.8.7.9.7.",
"9.9.7.9.8.8.9.j.r.0.0.y.t.t.y.>.U U z 7 a ^ X.*.*.*.*.*.-.*.*.*.*.-.*.*.*.*.*.*.-.X.Q y 7 z S S &.y.t.t.t.t.t.t.j.9.9.7.7.9.7.7.",
"7.7.8.9.9.9.9.j.y.y.y.0.t.t.t.&.U U x 7 I X.1.s.d.d.d.d.d.d.d.d.d.d.d.d.d.d.d.d.2.1.X.I 7 x U U >.y.t.t.t.t.y.y.j.9.9.8.9.9.9.7.",
"9.9.9.8.8.,.<.f.&.3.0.r.r.0.t.>.U U z 7 ] 7.X.I d.1.*.*.*.*.*.*.*.*.*.-.*.*.1.s.C 1.1./ 7 z m U >.y.r.t.t.t.&.&.y.,.,.9.9.9.9.7.",
"9.7.8.9.8.P ! 6.5 A r.0.r.r.t.>.U U v 7 _ q.s.1.d.1.-.*.-.-.-.-.-.-.-.-.-.-.1.s.1.s.2./ 7 z U U >.y.t.t.t.5.s z i.E E 9.7.9.7.7.",
"7.8.7.9.8.$.=.9.~ @.9.0.0.0.t.>.U U s 7 _ 2.d.d.d.d.s.s.s.s.s.s.s.s.s.s.s.s.d.d.d.d.q.) p x U U >.y.w.w.t.8.] | j.%.$.8.8.7.9.7.",
":.:.:.;.;.:.:.,.>.>.>.>.:.>.>.O.U m s 7 _ 2.d.d.d.*.X.X.X.X.X.X.X.X.X.X.X.X.-.d.d.d.2.) 7 z U U @.>.&.&.:.:.,.>.,.:.:.:.:.:.:.;.",
"2.q.q.q.q.q.q.p.q.w.q.r.r.w.y.&.G G h t _ 2.d.d.d.s.2.2.2.q.2.s.9.2.s.2.2.s.s.d.d.d.2./ t h G G >.p.r.q.w.w.w.q.q.q.q.q.q.q.q.6.",
"7.q.7.7.q.| ..q.A ] w.y.w.y.y.>.G G h t _ s.d.d.d.2.1.1.1.1.1.1.1.1.1.1.1.1.2.d.d.d.2.) t h G G >.y.r.r.w.w.G ! p.....q.2.7.6.q.",
"7.q.q.7.q.I ) 6.i K r.w.y.w.y.>.G G h t _ 2.1.-.d.-.X.*.X.X.X.X.X.*.X.X.X.X.-.d.*.2.2./ r z G G &.r.r.w.t.w.b n p.Q ! q.2.q.q.6.",
"9.7.7.q.q.<.7.f.5.5.w.w.y.w.y.>.G G h y _ 1.%.^ d.d.d.d.d.d.d.d.d.d.d.d.d.d.d.s.H 1.1.) t h G G >.r.w.r.w.w.3.5.i.q.<.q.7.q.6.q.",
"9.9.7.9.q.7.q.i.w.t.w.t.t.t.t.>.G G z 7 C X.1.s.d.d.d.d.d.s.d.d.s.d.d.d.d.d.d.d.s.1. .V 7 z G G >.y.r.w.r.w.y.w.f.q.7.q.7.q.6.7.",
"7.9.7.9.q.6.q.p.w.r.t.t.t.t.y.&.U S s 7 4 D  .X.X.X.X.X.X.X.X.X.X.X.X.X.X.X.X.X.X. .V 6 7 z G U >.y.w.r.w.r.y.w.f.7.q.7.q.7.q.7.",
"9.7.9.9.6.q.r.i.t.t.t.t.t.t.y.>.U G z 7 6 < t r - 2 e - 3 p i i t y e - 3 7 - 8 p t < 7 7 h G G >.y.w.w.r.w.r.w.k.9.q.7.7.q.q.2.",
"9.9.9.7.q.q.q.i.t.t.t.t.t.y.y.&.U G x 7 7 6 1 :   O =   % < < 4 < < =   % %   % < < 6 7 7 x G G >.y.w.r.w.r.w.y.k.9.7.q.7.7.7.5.",
"7.9.9.9.7.7.9.k.w.r.w.r.w.r.r.&.S S S s 7 7 7 6 . $ >   * 7 7 7 7 7 >   % :   : 7 7 7 7 h S G U >.y.t.t.t.t.t.t.k.8.8.8.9.9.9.7.",
"7.9.7.9.9.9.9.k.r.w.r.w.r.w.w.w.] U G S z 7 7 7 o % 4 X ; i i 7 u u 4 o ; > X < 7 i u z S G S { 8.t.t.t.t.t.t.t.l.9.8.9.8.7.9.7.",
"9.9.9.9.8.8.9.f.w.r.w.r.w.r.w.t.w.] G G S m m m v n m v m m A m m m m n n m n n A m A S G S { t.t.t.t.t.t.t.t.t.i.9.8.8.7.9.7.7.",
"9.7.9.7.9.8.9.j.r.w.r.w.r.w.r.w.w.5.{ T T T ! ! R R R R R R R R ! R T T T T T T R R R R T { w.t.t.t.t.t.t.t.t.t.l.9.8.8.9.9.9.7.",
"7.9.9.9.8.9.9.f.w.r.w.r.r.w.w.w.w.r.q.w.w.w.5.w.0.8.8.0.0.8.0.0.8.5.w.w.8.8.w.w.w.8.w.8.8.t.t.t.t.t.t.t.t.t.t.t.f.9.9.7.9.9.9.7.",
"9.9.7.7.7.9.9.j.r.w.r.w.w.r.r.w.w.q.w.r.t.t.r.r.t.t.t.t.t.t.0.r.t.t.y.t.r.r.t.t.r.r.r.r.r.w.t.t.t.t.t.t.t.t.t.t.j.9.9.9.8.7.9.7.",
"9.7.8.9.8.8.9.j.w.r.w.r.r.w.5.5.r.w.r.w.r.w.w.w.t.t.t.t.0.t.r.r.t.t.t.t.w.w.r.w.w.w.r.w.w.r.w.5.3.0.t.t.y.0.y.0.j.9.9.9.7.9.7.7.",
"9.9.8.8.9.8.9.j.r.w.r.w.w.3.~ o.w.r.w.r.w.r.w.r.t.t.t.t.t.t.0.r.t.t.t.t.w.r.w.r.w.r.w.r.r.w.r.<.W @.0.t.0.y.0.y.i.9.7.9.9.9.9.7.",
"7.7.9.9.9.8.9.j.r.0.t.t.3.~ ! ,.y.0.y.0.y.0.y.0.y.0.y.0.r.0.r.r.t.t.t.t.t.t.0.y.t.t.t.t.t.t.t.9.O.T @.0.w.w.t.t.i.w.9.7.9.9.9.7.",
"9.9.9.7.8.8.9.j.r.r.0.3.~ ! 3.t.0.y.0.y.0.y.0.y.0.y.0.y.0.0.r.0.t.t.t.t.t.0.y.0.t.t.t.t.t.t.t.r.0.O.T @.0.w.t.t.i.8.9.7.9.7.9.7.",
"7.9.9.8.8.9.9.j.0.t.3.~ ! 3.t.w.y.0.y.0.y.0.y.0.0.0.y.0.0.0.0.0.t.t.0.0.t.t.y.y.t.t.t.t.t.t.r.0.t.0.O.T @.0.t.t.y.9.7.9.7.9.7.7.",
"9.9.7.9.8.8.9.j.r.3.~ ! >.t.t.t.0.y.0.y.0.y.0.y.y.0.0.0.0.0.8.0.0.0.0.0.0.8.0.0.t.t.t.t.t.t.r.0.t.t.0.O.T @.0.t.n.w.9.8.9.9.9.7.",
"9.7.9.8.8.8.9.j.5.~ ! 3.t.t.t.t.y.0.y.0.0.y.0.0.y.4.{ o.7.@.] 3.3.] @.4.o.| 4.y.t.t.t.t.0.r.r.r.t.t.t.9.O.T %.t.f.9.9.8.9.9.7.7.",
"9.9.8.8.8.8.9.j.5.o.<.y.t.t.t.t.0.0.0.y.y.0.y.0.0.4.F 6 3.{ 5 ` W 4 ] 3.5 F 4.0.t.t.t.t.r.r.0.r.t.t.r.r.8.@.&.t.j.9.8.8.7.9.9.7.",
"7.7.7.7.7.7.7.l.y.r.i.y.y.y.y.y.0.y.h.0.y.y.0.h.y.4.v @ >.] + J S $ ] &.@ n 7.y.e.r.y.y.y.y.i.f.t.y.y.r.y.u.u.i.l.8.7.7.7.7.7.7.",
"( $.$.@.$.$.$.,.6.3.6.6.6.6.3.4.3.6.6.6.6.4.6.1.3.>.v # @.` @ F Z $ ] @.@ n >.6.6.6.3.3.6.6.3.<.3.4.6.5.5.4.3.3.<.$.@.$.$.@.$.( ",
"d P o.o.o.o.O.%.:.:.#.[ ' } #.&.:.:.;.:.:.;.:.:.:.%.v + ..` @ V v # ' { O n ;.:.;.:.;.:.:.:.:.:.:.#.} ' [ #.:.:.&.o.o.o.o.o.P w ",
"0 d P O.o.O.O.&.:.:.P e 1 e b %.:.:.:.:.:.:.:.:.:.%.F 7 +.` r Y Y r ' O.6 F $.:.:.:.:.:.:.:.:.:.&.D y , 2 D :.:.%.o.O.o.o.P w 0 ",
"0 0 d P o.O.O.;.:.:.Q 3 , 3 a ! :.:.:.:.:.:.:.:.:.%.` ` ;.] ` @.+.W { &.` ` %.:.:.:.:.:.:.:.:.:.[ a q , 3 J :.:.&.O.O.o.P w 0 0 ",
"0 0 0 d P o.O.:.:.:.' e , 3 y b ;.:.:.:.:.:.:.:.:.;.$.$.:.%.$.;.;.$.&.:.$.$.:.:.:.:.:.:.:.:.:.:.D y e , 3 E :.:.;.O.O.P w 0 0 0 ",
"0 0 0 0 d P +.;.:.,.} g e y y e { >.:.:.:.:.:.:.:.:.:.:.:.:.:.:.:.:.:.:.>.:.:.:.:.:.:.:.:.:.>.#.r e y y y ' :.:.;.O.P w 0 0 0 0 ",
"0 0 0 0 0 w I ;.&.;.O.g a y a 3 D ;.;.;.;.;.;.:.;.;.;.;.;.;.;.;.;.;.;.;.;.;.;.;.;.=.;.;.;.&.&.K 3 y y y g } ;.;.=.P w 0 0 0 0 0 ",
"0 0 0 0 0 0 w M N B b a y y y q q b b b b b b b b b b b b b b b B B b b b b b b b b b B b b b e 2 y y a a l B N M d 0 0 0 0 0 0 ",
"0 0 0 0 0 0 0 0 8 2 , 3 q q q 2 , , , , , , , , , , , , , , , , , 1 , , , , , , , , 1 , , , , , 2 q q q 5 , 2 9 0 0 0 0 0 0 0 0 "
};
