/* XPM */
static char *xpm_[] = {
/* columns rows colors chars-per-pixel */
"64 64 125 2 ",
"   c #16181F",
".  c #233A1C",
"X  c #171921",
"o  c #1C1E27",
"O  c #1D1F28",
"+  c #1E2029",
"@  c #22242F",
"#  c #263C24",
"$  c #252733",
"%  c #272A36",
"&  c #2B2E3D",
"*  c #2D303F",
"=  c #254616",
"-  c #284D17",
";  c #27461B",
":  c #28461C",
">  c #27481A",
",  c #294B1B",
"<  c #2A5413",
"1  c #2D5915",
"2  c #2B501B",
"3  c #345A11",
"4  c #3C5F10",
"5  c #315E19",
"6  c #35641B",
"7  c #37681D",
"8  c #38691D",
"9  c #2D4D23",
"0  c #2F4A2C",
"q  c #30492F",
"w  c #2E5023",
"e  c #314735",
"r  c #314833",
"t  c #3C6E22",
"y  c #3E7023",
"u  c #4B670F",
"i  c #6B790C",
"p  c #727E0C",
"a  c #406F27",
"s  c #417426",
"d  c #4B7924",
"f  c #44732B",
"g  c #48772E",
"h  c #46782C",
"j  c #497A2F",
"k  c #567E23",
"l  c #597F21",
"z  c #497730",
"x  c #4B7B32",
"c  c #2E3140",
"v  c #323647",
"b  c #333748",
"n  c #36394C",
"m  c #383C4F",
"M  c #383D50",
"N  c #3D4257",
"B  c #3E4358",
"V  c #41465D",
"C  c #7E840B",
"Z  c #5C8122",
"A  c #57812D",
"S  c #508037",
"D  c #588336",
"F  c #518038",
"G  c #638832",
"H  c #84870A",
"J  c #86880A",
"K  c #8B8B09",
"L  c #938F09",
"P  c #969109",
"I  c #9C9408",
"U  c #A59A07",
"Y  c #AA9D07",
"T  c #A29808",
"R  c #B6A306",
"E  c #B9A506",
"W  c #AAA411",
"Q  c #C4AB05",
"!  c #C0AF0D",
"~  c #C7B20B",
"^  c #CDB50A",
"/  c #CEB50A",
"(  c #CFB60A",
")  c #C9B40E",
"_  c #CBB40A",
"`  c #D4B403",
"'  c #D5B403",
"]  c #D7B603",
"[  c #D8B603",
"{  c #D9B703",
"}  c #DDB903",
"|  c #DABB07",
" . c #DEBD06",
".. c #D2B709",
"X. c #D4B808",
"o. c #DDBD09",
"O. c #DFBE0A",
"+. c #C8B411",
"@. c #CAB511",
"#. c #E7BF02",
"$. c #E0BD06",
"%. c #E0BE06",
"&. c #E2BF06",
"*. c #E3BF06",
"=. c #E2BF06",
"-. c #E0BE0A",
";. c #E6C105",
":. c #E9C002",
">. c #EBC102",
",. c #EDC201",
"<. c #EEC301",
"1. c #E9C204",
"2. c #F1C401",
"3. c #F4C601",
"4. c #F5C601",
"5. c #F7C801",
"6. c #F8C800",
"7. c #FAC900",
"8. c #FBCA00",
"9. c #FCCA00",
"0. c #FDCB00",
"q. c #FECB00",
"w. c #FECC00",
"e. c #FFCC00",
"r. c #FFCC00",
/* pixels */
"M M M M M M M M 9 2 2 2 2 , 2 2 w 2 2 2 2 2 2 2 w 2 2 2 2 2 2 2 2 2 2 2 2 2 2 2 1 < 2 2 2 2 2 2 2 2 2 2 - 2 9 M M M M M M M M M ",
"M M M M M M M M 2 < < 1 1 1 1 1 w 5 1 1 1 1 1 1 1 1 1 1 1 5 1 1 1 1 1 5 1 1 1 1 1 1 1 1 1 < 1 < < < < 1 < < - N M M M M M M M m ",
"M M M M M M M M 2 < 7 y s h F F F F F F F F x s F F x y h y y y y y h y y y y y s s s s y t 7 7 8 8 7 7 7 1 - m M M M M M M M M ",
"M m M M m M M M 2 < 7 y s h F F F F F F F F x s F F F s y y h h y y y h h h y y s s s s y y 7 7 8 7 8 8 7 1 < m M M m M M M M M ",
"M M M M M M M M 2 < 7 y s h F F x F F F F F z s F F x y h y f y y h y y y h y h s s s s s 8 7 7 8 8 7 7 8 1 - N N b N b M m N n ",
"M M M M M M M M 2 < 6 t y h x x x x x x x x z y x S x y y y y y y y y y y y y y y y y y y 8 7 7 7 7 6 7 7 < < N N N b N M M N n ",
"M M m m M M m M 2 1 < < 6 t t f z z z z x g g f y g g t y t t y y y y t y y y y 8 y y 8 7 6 6 6 6 6 6 < < < 2 n v N b N b N n N ",
"M M M m m M M M q 9 - < 6 y s x F F F F F x F j g F F h y h y y h y h y y y y y s s s y 7 7 8 8 7 7 7 < < w 0 N N b N b N b N n ",
"M M N b b M M M M M 9 < 6 t y x F F F F F F F j h F F h s s s s y y y S s s s s s s s s 8 8 8 8 7 7 7 < 2 b b N N v N v v v N v ",
"M M M c c b M M M M 9 < t t y x F F F F F F F j h F F h s s s s y h y y s s s s s s s s 8 8 8 8 7 7 7 < 9 N N b v N v c N N N N ",
"M M M v & & b M M M 9 < 8 y y S F F F F F F F j h F F h s s s s h y y h s s s s s s s s 8 8 8 8 7 7 7 < 9 N b N N v & v N v v N ",
"M M N b % + c b M M 9 < 8 y y x F F F F F F F j h F F j s s s s y h y y s s s s s s s s 8 8 8 8 7 7 7 < 2 b N N c & + N N N v N ",
"M M M b % + $ c c N 9 < 7 y y S F F F F F F F j h F F h s s s s h y s s s s s s s s s s 8 8 8 8 7 8 8 1 9 N b b c + X & N N N v ",
"m M M b $ + @ % c c 9 < 7 y y j F F F F F F F j h F F h s s s s y h s s s s s s s s s s 8 8 8 8 8 8 7 < 2 N v & @ + + N N N N N ",
"M m M b % + @ $ % c 9 < 7 y y S F F F F F F F j h F F h s s s s s s s s s s s s s s s y 8 8 8 8 7 8 7 < w v c @ + + @ N N N c N ",
"M M M b % + @ $ $ % , < 7 y y S F F F F F F F j h F F h s s s s s s s s s s s s s s s s 8 8 8 8 8 8 7 < 2 c @ + + % + c N N v N ",
"M M n v % + + % % $ ; < 7 t y S F F F F F F F z h F F h s s s s y h y y s s s s s s s s 8 8 7 8 8 8 8 < - @ + + $ $ $ n B M M M ",
"M M N b % + + $ @ # - < 7 t y S F F F F F F F z h F F h s s s s h y h y s s s y s s s y 8 8 8 8 8 8 8 < < . + $ $ $ $ n B M M M ",
"M M M b % + $ $ $ > < < 6 t t y x x x z x x x y s z z f y t t t y y y y y y y y y y y 8 7 6 6 6 6 7 7 < < - @ $ $ $ $ n N M M M ",
"M M m v % + $ $ $ - < 6 t t y S x x x x x x x y z x z y y y y y y y y y y y y y y y y y 8 6 6 7 6 6 6 6 1 - % $ $ $ $ n B M M M ",
"N b N b % + + $ % - < t y y S S F F F F F F F y x F F f s s s s y y s s s s s s y s s s y 7 7 8 7 7 8 8 < < $ $ $ % $ n B M M M ",
"n N n b % + + $ @ - < 7 y y h S F F F F F F F g x F F h s s s s y h s s s s s s s s s s y 8 8 7 8 8 7 8 < < $ $ $ $ $ n B M M M ",
"N b b v % + $ $ $ - < 7 y y h S F F x x F F F y x x F s s s s s y y s s y y s y y A s s 8 8 8 8 8 6 8 8 < - @ $ $ $ $ n B M M M ",
"N N N v % + $ $ $ - < 1 7 t 7 y z z z y z y z y t f h t 8 8 t 8 t t 8 t t 8 t 8 7 8 8 8 6 6 6 6 6 6 6 < < - $ $ $ $ $ n B M M M ",
"b N b v % + + $ $ - < < 7 y y S x F F F F F F j g F F h s s d W A y y s s s s s s s s s 8 8 8 8 8 8 7 < - > $ $ $ $ $ n N M M M ",
"N b N v % + $ % $ $ > < 7 y y S x F F F F F F x h S S h s d ~ w._ Z y y s s s s s s s s 8 8 8 8 7 8 7 < = @ $ $ $ $ $ n B M M M ",
"N v N c % + + $ $ $ > < 7 y y S F F F F F F F x h F F h d ~ w.w.5.( Z t s s s s s s s s 8 8 8 8 8 8 7 < = @ $ $ $ $ $ n B M M M ",
"b N N v % + @ $ $ @ ; < 7 y y h F F F F F F F x h F F j ~ ] 3.w.5...~ A s s s s s s s y 8 8 8 8 8 8 7 < = @ $ $ $ $ $ n B M M M ",
"N N N * $ + $ % $ $ ; < 6 t y S F F F F F F F x h F D @.8.I w.w.w.Y <.^ A y s s s s s s 8 8 8 8 8 8 8 < = @ $ $ $ $ $ n B M M M ",
"N v N v $ o + % $ $ ; < 7 t y S F F F F F F F x h D @.r.;.C Y K I J X.w._ s s s s s s s 8 8 8 8 8 8 8 < = $ $ $ $ $ $ n B M M M ",
"v v N v % + + % $ $ ; < 7 t y S F F F F F F F x h @.r.5.I 1 H ` K 3 P 3.w.^ Z y s s s y 7 7 8 7 8 8 8 < = @ $ $ $ $ $ n B M M M ",
"N N v v $   + + + + ; < 7 t y S F F F F F F F x E r.r.I Y i 4 C 3 C W L w.w.~ s s s s y 7 7 8 8 8 8 7 < = o + + + + + b B M M M ",
"m m N v $   o + o o = < 8 y s j F F F F F F F A | w.<.:.8.H Q u R J 8.1.1.w. .k s s s s 8 8 8 8 8 8 8 < = X + + + + + v B M M M ",
"N m m v $ + @ $ $ $ > < 7 y s x F F F F F F F j Z O.8.w.w.R L 3 P U w.w.8.;.Z y s s s s 8 8 8 8 8 8 8 < = $ $ $ $ $ $ b B M M M ",
"n m m v % + @ $ $ $ > < 7 y s x F F F F F F F j h D O.w.w.w.P 3 J w.w.w.;.Z y s s s s y 8 8 8 8 8 8 8 < = + $ $ $ $ $ m B M M M ",
"n N N b $ + @ $ $ $ > < 7 y s j F F F F F F F j h F G  . .Y P 1.P U X.%.Z s s s s s s s 8 8 8 8 8 8 8 < - + $ % $ $ $ b B M M M ",
"m N b v % + $ $ $ $ > < 7 y s x F F F F F F F j h F F A | w.w.w.w.w.&.Z y y y h s s s s 8 8 7 7 8 8 8 < < o % % $ $ $ n B M M M ",
"N n N v $ O @ $ $ $ ; < 7 y s j F F F F F F F j h F F h Z ;.w.w.w.1.Z y y h y y s s s s 8 8 7 7 8 8 8 < < + + % $ $ $ b B M M M ",
"N v n v % + @ $ $ $ ; < 7 y s x F F F F F F F j h F F h y A ;.w.1.Z S y y h h y s s s y 8 8 7 7 8 8 8 < = + + % $ $ $ n B M M M ",
"b N N v $ o @ $ $ > - < 7 y s z F F F F F F F j h F F h y y Z ) Z y y y h y y h s s s y 8 8 7 7 8 8 8 < < = % % $ $ $ n B M M M ",
"N N N * % + + $ $ , < < 6 7 8 s f f f f a g f t t y y t t t t t y y t 8 t 8 8 t t t t 7 6 6 6 6 6 6 6 < < , $ $ $ $ $ n B M M M ",
"N v N v % + + $ $ - < 7 y s j F F F F F x F x g x S F g y y h y y y y y s s y y y y y y y 7 7 7 7 8 8 8 < - $ $ $ $ $ n B M M M ",
"v v N v % + $ % $ , < 8 y s j F F F F F F F x h S S F h y g y y y y h y s s y h y h y S y 7 7 7 7 7 7 8 < - $ $ $ $ $ n B M M M ",
"N N v v % + + $ $ - < 8 y s j F F F F F F F x h S F F y y y y h y y S y s s s y s y y y y 8 8 7 8 7 7 7 < - $ $ $ $ $ m B M M M ",
"N v N v % + + % $ , < 6 t t h x x x x x x x x a h S h y y y y y y y y y y y y y y y y y t 7 6 6 6 6 6 8 < - $ $ $ $ $ n B M M M ",
"v N N v % + + % $ , < < 6 t t h z z x z x z z g y S h y y y y y y y y y t y y y y y y y 7 6 7 7 6 6 6 < < - $ $ $ $ $ n B M M M ",
"N N N c % + $ % $ # - < 6 t s x F F F F F F x z y S S y y y s s y y y s y y h s y s s s 7 7 7 8 8 8 8 < < . + $ $ $ $ n B m M M ",
"N v N b % + + $ $ $ : < 7 t s x F F F F F F F z S S S S h y s s S y s s y h y s h y s y 7 7 7 7 8 8 8 < w $ + + $ $ $ n B M M M ",
"v v N * % + + @ % % w < 6 y y S F F F F F F F j h F F h y h y s s s s s s s s s s s s s 8 8 8 7 8 8 8 < w N + + + $ $ n B M M M ",
"N N N v % + @ % % N w < 7 y y h F F F F F F F j h F F h h y s s s s s s s s s s s s s y 8 8 8 8 8 8 8 < w N N $ + + $ n B M M M ",
"N v N * % + + @ N N w < 7 y y S F F F F F F F j h F F h y y h y s s s s s s s s s s s s 8 8 8 8 8 8 8 < 9 m N N $ + + m N M M M ",
"N N N v % + % N B N w < 7 y y S F F F F F F F x h F F h S y y y s s s s s s s s s s s s 8 7 8 8 8 8 8 < w M m B N @ + c B M M M ",
"v N N & @ + N N N b 9 < 7 t y S F F F F F F F j h F F h y y y h s s s s s s s s s s s s 8 7 8 8 8 8 8 < < N M M B N $ c B M M M ",
"N v N & & N N N N N 9 < 7 y y h F F F F F F F j h F F f y h h y s s s s s s s s s s s s 8 8 8 8 8 8 8 < 2 b M M M B N N B M M M ",
"N N * N N N N * b N w < 7 y y S F F F F F F F j h F F h y s s y s s s s s s s s s s s y 8 8 8 7 8 8 8 < 2 M M M M M N B N M M M ",
"v N N N N N N N N b 2 < 7 y y S F F F F F F F x h S F h h y s h s s s s s s s s s s s s 8 8 8 8 8 8 8 < 9 m M M M M M N N M M M ",
"N N N N v N N v 0 0 2 < 7 t y S x F F F F F x x j F F h s s s s s s y s s s s s y s s y t 7 8 8 7 7 7 < - q e M M M M M M M M M ",
"c v N v N N v N - < < < 6 t y y x x x x x x x g f x x s y t y t y y y y y y y y t y y y 6 6 6 7 6 6 7 < < 1 - M M M M M M M M M ",
"N N v N N v v N 2 < 6 7 y y S j x x z x x x x y z x z y t y y y y y y y y y t y y y y y y 7 6 6 6 6 7 6 7 < - M M M M M M M M M ",
"* N N N v N N N 2 < 7 t y y S S F F F F x F x f F F x s s s s s s s s s s s s y s s s s s t 7 7 8 8 7 7 7 1 < b M M M M M M M M ",
"N N N c N v N v < 1 7 t S y F F F F F F F F x s F F x s s s s s s s s s s s s s s s s s y y 7 7 8 8 8 8 7 1 - v m M M M M M M M ",
"N c N N N b v N 9 1 7 t y S F F F F F F F F x y F F F s s y s s s s s s s s s s s y s s s 8 7 7 8 8 8 8 7 1 - N m M M M M M M M ",
"N N N c b N N b 2 < 1 1 5 5 7 6 6 5 6 5 6 6 5 5 5 6 5 5 1 6 1 1 5 1 1 5 5 1 1 5 1 5 1 5 5 1 1 1 1 < 1 < 1 < - M M M M m M M M M ",
"v c N N N b N N 9 < < - < < - 2 < 2 - < < 2 < < 2 - < < 2 < < 2 < < < 2 < < < < < 2 < < < < < < < < < < < < 2 M M M M M M M M M "
};
