/* XPM */
static char *xpm_[] = {
/* columns rows colors chars-per-pixel */
"64 64 198 2 ",
"   c #000000",
".  c #0B040C",
"X  c #0B0A0E",
"o  c #070108",
"O  c #10060F",
"+  c #0F0410",
"@  c #0D0C12",
"#  c #130414",
"$  c #120A15",
"%  c #170519",
"&  c #1B041D",
"*  c #160B19",
"=  c #1B0B1D",
"-  c #180817",
";  c #0F1014",
":  c #111217",
">  c #15141B",
",  c #1C131D",
"<  c #16181F",
"1  c #1B1D1D",
"2  c #171817",
"3  c #200A1F",
"4  c #1D211F",
"5  c #1F0421",
"6  c #1F0C21",
"7  c #1C1422",
"8  c #171920",
"9  c #1B1C25",
"0  c #1D1F28",
"q  c #220524",
"w  c #220B25",
"e  c #260529",
"r  c #2A052D",
"t  c #260C29",
"y  c #290C2B",
"u  c #211325",
"i  c #2A1227",
"p  c #221B25",
"a  c #251329",
"s  c #221D2C",
"d  c #2C162A",
"f  c #321C2E",
"g  c #2D0531",
"h  c #2E0B31",
"j  c #320636",
"k  c #320B35",
"l  c #340738",
"z  c #350A39",
"x  c #3A0E3E",
"c  c #2C1432",
"v  c #2C1C32",
"b  c #321235",
"n  c #331C34",
"m  c #351438",
"M  c #3A133D",
"N  c #391B3B",
"B  c #1E2223",
"V  c #1E202A",
"C  c #222524",
"Z  c #242927",
"A  c #21232E",
"S  c #262A29",
"D  c #292D2C",
"F  c #292228",
"G  c #332C29",
"H  c #2B302E",
"J  c #32302D",
"K  c #252733",
"L  c #272936",
"P  c #2B2E33",
"I  c #2B2E3C",
"U  c #352E36",
"Y  c #37283B",
"T  c #2D3331",
"R  c #2D303F",
"E  c #313534",
"W  c #323937",
"Q  c #353C3A",
"!  c #393F3D",
"~  c #35373F",
"^  c #463535",
"/  c #39413E",
"(  c #524C3D",
")  c #4D493B",
"_  c #615539",
"`  c #3E1342",
"'  c #3E1941",
"]  c #3F2E41",
"[  c #2E3141",
"{  c #323646",
"}  c #333748",
"|  c #35394C",
" . c #383C4F",
".. c #3C3C42",
"X. c #383D50",
"o. c #411545",
"O. c #461B4A",
"+. c #491C4D",
"@. c #441E47",
"#. c #48244B",
"$. c #473341",
"%. c #4E2052",
"&. c #553C57",
"*. c #3D4542",
"=. c #3F4845",
"-. c #3C4156",
";. c #3D4258",
":. c #3E4358",
">. c #3E4358",
",. c #454544",
"<. c #414A46",
"1. c #444D4A",
"2. c #4B4C4C",
"3. c #5C4D4E",
"4. c #47514D",
"5. c #48524E",
"6. c #575246",
"7. c #41465D",
"8. c #4B5551",
"9. c #575653",
"0. c #515B57",
"q. c #535D59",
"w. c #554C55",
"e. c #644B4D",
"r. c #625E4D",
"t. c #6F584C",
"y. c #56605C",
"u. c #69625A",
"i. c #796F56",
"p. c #614E62",
"a. c #675669",
"s. c #6E616F",
"d. c #6C626C",
"f. c #6C6D6C",
"g. c #6B6561",
"h. c #6F6270",
"j. c #766977",
"k. c #747474",
"l. c #7B717A",
"z. c #816B47",
"x. c #8B7F61",
"c. c #837979",
"v. c #846A6A",
"b. c #8A8063",
"n. c #968867",
"m. c #9E906E",
"M. c #9D9278",
"N. c #988F78",
"B. c #A59672",
"V. c #B3A37B",
"C. c #C7A960",
"Z. c #E2C171",
"A. c #827583",
"S. c #8B8B8A",
"D. c #868486",
"F. c #968788",
"G. c #93928E",
"H. c #989798",
"J. c #928693",
"K. c #B5A88B",
"L. c #BEAD83",
"P. c #AAA199",
"I. c #9F9AA0",
"U. c #A4A2A4",
"Y. c #AAA8AA",
"T. c #B2B2B2",
"R. c #BCBCBC",
"E. c #C9B689",
"W. c #D2BF8E",
"Q. c #CBBB95",
"!. c #C8BCBC",
"~. c #DBC898",
"^. c #E1C990",
"/. c #E8D29C",
"(. c #CAC2B7",
"). c #EFD9A3",
"_. c #EBD6A0",
"`. c #FDE6AB",
"'. c #FFE9AE",
"]. c #F8E0A5",
"[. c #FFECB0",
"{. c #C5C5C5",
"}. c #CBCBCB",
"|. c #D2CEC8",
" X c #CFD0CF",
".X c #D3D3D4",
"XX c #DDDDDD",
"oX c #E5E6E5",
"OX c #E2E2E2",
"+X c #E7E8E7",
"@X c #ECECEC",
"#X c #EAE4E4",
"$X c #F2F2F2",
"%X c #F7F7F7",
"&X c #F5F5F5",
"*X c #F9F9F9",
"=X c white",
"-X c #FEFEFE",
/* pixels */
"X.X.X.X.X. .X.X.X.X.X. .X.X.X.X. .X. . .} [ K 8 > : @ X + $ = 6 a t a u u 0 K {  . . . .X.X.X.X.X.X.X.X.X.X.X.X.X.X.X.X.X. .X.X.",
"X.X.X. .X.X.X.X.X. .X. .X.X.X. . . .{ 0 * % & 5 5 5 e 5 e 5 5 5 t y k ` o.' m a A {  . .X. .X.X.X.X.X.X.X.X.X.X.X.X.X.X.X.X.X.X.",
"X. .X.X.X.X.X.X.X.X.X.-. .-.X.X. . .8 r g j j j l l j j l j j j h h t 5 g z ` O.o.a K  .X.X.X.X.X.X.X.X.X.X.X. .X.X.X.X.X.X.X.X.",
"X.X.X.X.X. .X.X.X.| [ } [ } } [ { [ = g j j j j j j j j j j j j j j l z t r j j o.O.c A { { { { } { { { { { }  .X.X.X.X.X.X.X. .",
"X.X.X.X.X.X.X.X.X.-.[ K K L K L L L * e g j g j j j j j j j j j j j j j M t r g j ` +.c 9 L L L L L L L L I -.-.X. .X.X.X.X.X.X.",
"X.X.X.X.X.X.X. .X.;.-.V 8 8 V V 0 0 < % e e e e r j j j j j j j j j j j l ` q h j j o.O.7 9 0 9 9 V 0 9 K X.;.X.X.X.X.X. .X.X.X.",
"X.X.X.X.X.X.X.X.X.X.;.-.K 8 9 V V A V $ q e e e e g j j j j j j j j j j j x c r l j l O.b 8 A A A A V L X.>.X.X.X.X. .X.X.X. .X.",
" .X.X.|  .X.X.X.X.X.X.;.-.K V V K K L 7 & r e e e r j j j j j j j j j j j l M q j j l ` @.7 L K K K I -.>.X.X.X.X.X. . . .X.X.X.",
"X.X.X.} { X.X.X.X.X.X.X.;.X.K V V L K 8 5 e e e e r j j j j j j j j j j j l ` 5 j j j z +.a V K K I -.;.X.X.X.X. .X.-.{ } X.X.X.",
" .X.X.} [ } X.X.X.X.X.X.X.;.X.K 9 V K > 5 e e e e j j j j j j l j j j j j l ` 5 j j j j O.c 0 K L X.;.X.X.X.X.X.X.X.| [ X.X.X.X.",
"X.X.X.{ I I { X.X.X.X.X.X.X.;.-.K 9 V * e e e e j j j j j j j g g g g g g g z 5 g g g g ` m 9 [ -.;.X.X.X.X.X.X.X.} I | ;.X.X.X.",
"X.X.X.} K K [ } X.X.X.X.X.X.X.;.-.L 9 + 5 q q r g r r g g g N a.h.h.h.h.d.d.j.d.s.h.h.h.p.m 8 X.;.X.X.X.X.X.X.X.} I K [ ;.X. .X.",
"X.X.X.} L V K [ } X.X.X.X.X.X.X.;.X.8 w t t t t y d y a t t D.}.R.oX@X%X%X&X@X$X+X$X%XoXT.w.* X.X.X.X.X.X.X.X.} [ V V } ;.X.X.X.",
"X. . .} K V K K [ { X.X.X.X.X.X. .;.s O.%.%.%.%.%.%.%.%.%.#.U.}.S.XX&X-X-X%X$X&X+X*X-XXXH.j.a { X.X.X.X.X.X.} I K V V } ;.X.-. .",
"X.X.X.} L V K K K [ { X.X.X.X.X. . .K @.%.%.%.%.%.%.%.%.%.#.U.OXoX+X%X@XoXOX$X+XXXXX*X*XoXl.t | X.X.X.X.X.} [ V V V K } ;. . . .",
"X. .X.} L 9 A K K L [ { X.X.X.X.X. .s @.%.%.%.%.%.%.%.%.%.#.U.OX+X@X-X*XXX!.R.R.{.@X-X&XoXl.7 | X.X.X.X.} I K V V K K  .;. . . .",
"X.X.| { L V V K K K L [ } X.X.X.X.X.s ` +.' +.+.O.O.O.O.O.@.U.XXOX$X-X-X%XoX}. X%X-X-X@XOXl.6 { X.X.X.{ [ A 9 V K K K | ;.X.X.X.",
" .X.-.} L V K K K K K L [ } X.X.X.X.9 5 r r r g r r r r g y U.{.D.%X-X-X@X%X$X$X-X-X-X{.S.d.& | X.X.{ [ K 9 A K K K K | ;.X.X.X.",
"X.X.X.} K V V K K K K K L [ } X.X.{ > 5 5 5 5 5 & & 5 q & # f.!.T.XXOXXX.XXX.X.XOXOXXX}.I...> | X.{ [ V 0 A K K K K K | ;.X.X.X.",
"X.X.X.{ L V K K K K K K K L [ { } 8 5 j j j r 5 g j j r $ 1 E ,.2.9.M.K.K.K.K.K.K.N.2.2.U q s X.{ [ A V A K K K K K K | ;.X.X.X.",
"} -.-.{ L V V K K K K K K K K [ V 5 g j j j g g j j g , 2 p S J E J 6.E.'.`.`.`./.r.D D : & 0 } [ V 9 A K K K K K K K | ;.X.X.X.",
"-.} -.{ L V K K K K K K K K V V $ 5 g j j j j j j j t n.V.( S B C J D m.[.'.[.[.E.U Z F J $ 0 I 0 8 A K K K K K K K K  .;.X.X.X.",
"*.| -.[ K V V K K K K K K K V 0 # e g j j j j j j j a E.).P..Xl.p C F E.[.).~./.~.J 2.F.u.+ 9 V 8 0 K K K K K K K K K | ;.X.X.X.",
"X.X.-.{ L V K K K K K 9 9 0 8 > # 5 r j j j j j g j e K.C.T.#Xv.e.M.b.^.n.^ f ^ n.m.|.F.3.+ : : : 8 9 9 9 K K K K K K | ;.X.X.X.",
"X.X.X.{ L V A K K K A 8 V A V 9 $ 5 e g g j j j j j g ^ n.G.!.v.P.Q.V.^ e g j g d m.(.F.a.o X 8 8 0 V 9 < K K K K K K | ;.X.X.X.",
"X.X.X.{ K V A K K K A 8 A K V 0 8 # 5 r g g g h j j j g G G k.S.i.e.i g j j j j r d u.N.F   * 8 0 A K K 8 A K K K L K | ;.X.X.X.",
"X.X.X.} L V A K K K A 9 K K A 9 9 @ + 5 5 q e e r g g j g 5 # # & e j j j j j j l g & # +   > 0 0 A K K 9 A K K K K K | ;.X.X.X.",
"X.X.X.} L V K K K L A 9 K K V 9 9 :   o o + $ 5 5 e e r r g r r r h g g r g g g g g e &     : 0 8 A K K 9 A K K K K K  .;.X.X.X.",
"X.X.X.} L V A K K K A 9 L K A 9 9 :         @ 9 8 7 6 $ % & & & & q 5 5 5 5 q & & % o       : V 0 A K K 9 A K K K K K  .;.X.X.X.",
"X.X.X.} K V A K K K A 8 K K A 9 0 :           @ I [ V < : V W W F $ & > 9 C : 7 X           : 9 0 s K K 9 A K K K K K | ;.X.X.X.",
"X.X.X.} L V A K K K A 9 K K A V 0 :             @ V > *.*.E 8.y.*.t h F W *.1 + o           ; 9 0 0 K K 9 A K K K K K | ;.X.X.X.",
"X.X.X.{ K 8 V V V V 9 8 K K A 9 0 ;             + e e Y *.Z / y.! t g p W / C * h *         * 0 9 K K K < 0 0 0 A 0 V } >.X.X.X.",
" . .-.{ K 8 8 V 9 V 9 8 K K K 9 9 :           @ z l j j ] S.f.W 2 5 q * E 2.D.k.n m .       : 8 0 A K K 8 8 0 9 0 9 0 { ;.X.X.X.",
" . . .{ L V K K K K V 8 K K V 9 0 :           y z j j g &..X}./ D T T S 2.T.oX{.Y l =       : 0 0 A K K 8 A L L L L K | >.X.X.X.",
"X. . .{ L V V K K K K 9 K K V 9 9 :         . k l j j g n k.9.4 D W W W C ,.k.H & l k o     : 0 0 s K K 9 A K K K K K | ;.X.X.X.",
"| -.-.{ L V K K K K K 8 K K K 8 9 :         6 g j j g q F Q / / T T *.W Z Q / / T e j &     : 0 0 A K K 8 K K K K K K | >.X.X.X.",
" .| -.{ L V K K K K K 8 K K V V 0 :       $ b m t q w p H 4.*./ *.S / H D 4.*./ *.w y &     : V 8 A K K 9 A K K K K K | >.X.X.X.",
"-.| -.{ K V V K K K K 8 K K V 9 9 :     # ` O.+.` & D / H *.Q T / D / H D <.Q T ! n O.c o   : 8 0 A K K 8 A K K K K K | >.X.X.X.",
"-.} | { L V V K K K K 8 K K V V 0 :   @ a h $.t.3.d W *.D 1.<.1./ H / T D 1.1.1.! f N k &   ; V 9 A K K 9 A K K K K K | >.X.X.X.",
"} -.-.{ L 9 K K K K K 8 V V 9 8 9 @ @ { a z./.'.].i.Q ! H 4.5.5.*.S W D D 4.5.4./ x.E.t.p ; X > < 9 s 0 < A K K K K L | >.X.X.X.",
"-.} | { L V A K K K K V V V 8 8 8 8 | ;.{ C.^.B.b.) W / H =.4.4./ H =.W D 1.1.4.Q n.].Z.,.} 8 : : 9 0 0 9 K K K K L K | 7. .X.X.",
"-.-.-.{ L V A K K L K K K K V V K X.;.X.| _ 6.<.=.E H 1.H Z Z Z B T W E Z C Z S Z ) r.i...;.-.V < 0 K K K K K K K K K | -. .X.X.",
"} -.*.{ L V A K K K K K K K V V  .;.X.X.[ W 8.1.W C 4 W / W / / / *./ *./ / / H S 4.4./ P X.;.X.0 8 0 K K K K K K K K | ;.X.X.X.",
"-.} | { L V A K K K K K K K K -.;. .X.X.} W 1.D H S B D $ = , , p , p 9 u 7 = X 4 S / 4.R X.X.;.X.K 0 A K K K K K K K  .7.X.X. .",
"} -.-.} L V A K K K K K K K -.-. . . . .X.L B W *.*.Z C : w g g g g g g j j g = W / H Z P X.X.X.;.X.K 0 A K K K K K K } -. .X.X.",
"-.| -.{ L V A K K K K L I -.-.-. . . .-.X.K E *./ / / 2 Z < e r r e r r j g &.H.,./ *.Q A | X. .X.;.X.K 0 A K K K K K  .-. .X.X.",
"| -.| { L V A L K K K L -.-.-.| X.X. . .} S *./ / Q / Z D D 5 q & q q r k A.XXR.g.T Q *.D [ -.X.X.X.7.X.K 0 A K K K K | ;.X.X.X.",
"-.} -.{ L V A K K K L -.;.X.| -.| X. .-.{ B E / / / Q 4 D W * $ X X # y J. XG.Y.T.E T Q C }  . .X.X.X.7.X.K 9 A K K K } 7.X. .X.",
"| -.-.[ L 0 A K A I -.-.{ { -.{ X.X.X.{ I 8 < Q *.W 4 ; @ = & * 9 0 9 U H.S.{.A.M e < H K X.X.X.X.X.X.X.;.X.L 0 A K L | ;. .X.X.",
"-.} -.{ L 0 A L I -.-.-.-.-.-.-.X.X.} R K 8 < S W 4 : * g r % 8 A V s 0 P U.a.g j j w < L { X.X.X.X. .X.X.;.X.L 9 A K | ;.X.X.X.",
"-.} } { L 0 V A -.-.-.{ -.{ { -.X.} R K 9 K K 8 > X - g j e > K K K K K A K r l j e 5 9 L [ { X.X.X. . .X.X.;.X.K 9 A | ;.X.X.X.",
"-.-.-.{ L 0 K -.-.-.-.-.{ -.-.{ } [ V V V K K K V 5 j j g r s K L K K L L s g j j j w V K L [ { X.X.X. .X.X.X.;.X.L 9 } ;.X.| X.",
"{ -.-.[ A A -.-.X.X.| X.-.-.} { R A V V K K K K 7 g j j j j v [ I L L [ R c j j j j r 7 K K L R |  . . .X.X.X.X.;.X.K { ;.X.X.X.",
"-.} -.[ I -.-.-.X.| -.X.-.{ { I A V V K K K K K * e r g g r u L [ I L R K t e y y y u 2 A K L L [ {  . .X.X. .X.X.;.-.-.;.X.X.X.",
"-.} -.{ -.-.-.-.X.X.-.| -.} R A V V K K K K K V D Q E E E ~ D A R I L { V H ! ..*.=.4.T V L K K L [ {  .X.X.X.X.X.X.;.;.;.X.X.X.",
"{ -.-.-.;.-.-.{ X.X.| -.{ R A 0 V K K K K K L V W 8.8.8.8.1.H K R I L I K H 4.8.4.8.8.W V L K K K L [ | X. .X.X.X.X.X.;.;.X.X.X.",
"X.X.X.-.X.X.X.X.X.X.X.} I A V V K K K K K K K V H 5.4.5.4.*.S K R I L R K Z ,.<.=.=./ S V K K K K K L [ } X.X.X.X.X.X.X.X.X.X.X.",
"X.X.X.X.X.X.X.X.X.X.| I A V A K K K K K K K K A < B H H H B < L R I L R I 9 1 S H H B < L K K L K K K L [ } X.X.X.X.X.X.X.X.X.X.",
"X.X.X.X.X.X.X.X.X.{ I A V V K K K K K K V V T L B D *.=.*.S B [ R I K R [ V C *.4.5.W Z T T V V K K K K L [ } X.X.X.X.X.X.X.X.X.",
"X.X.X.X.X.X.X.X.{ { | { { } | } | } | L T 5.0.0.8.*.4.4.=./ S {  .| |  .{ D *.*.=.4.4.8.0.0.8.W K } | } } | [ } X.X.X.X.X.X.X.X.",
"X.X.X.X.X.X.X.| } | ;.;.;.;.;.;.;.;.[ E 0.y.y.y.8.5.5.5.5.5./ L ;.;.;.;.L / 5.5.5.5.5.8.q.y.y.q.Q R ;.;.;.;.X.{ | X.X.X.X.X.X.X.",
"X.X.X.X.X.X.X.X.X.X.X.X.-.X.X.X. . .K 4.0.y.0.8.5.5.5.5.5.5.=.B  .X. . .A *.5.5.5.5.5.5.8.0.q.0.4.V  .-.X.X.X.X.X. .X.X.X.X.X.X.",
"X.X.X.X.X.X.X.X.X.X.X.X.X.X.X.X. .{ H 5.5.5.4.1.1.1.*./ 1.1.*.V } -. .} Z *.1.1.*.*.=.4.4.4.5.4.4.H  .-.X.X.X.X.X.X.X.X.X.X.X.X.",
"X.X.X.X.X.X.X.X.X.X.X.X.X.X.X.X.-.} Z H H H H H S S Z S Z Z Z B {  .-.} 1 S Z S Z B Z Z S B Z S B 4  .| X.X.X.X.X.X. .X.X.X.X.X."
};
